<svg width="25" height="25" viewBox="0 0 30 30" fill="none" xmlns="http://www.w3.org/2000/svg">
<path d="M15 20.7079C18.1066 20.7079 20.625 18.2145 20.625 15.1386C20.625 12.0628 18.1066 9.56934 15 9.56934C11.8934 9.56934 9.375 12.0628 9.375 15.1386C9.375 18.2145 11.8934 20.7079 15 20.7079Z" stroke="white" stroke-width="2" stroke-linecap="round" stroke-linejoin="round"/>
<path d="M23.1328 9.65047C23.4149 10.0504 23.6619 10.4735 23.8711 10.9152L26.9063 12.586C27.2852 14.2666 27.2892 16.0088 26.918 17.6912L23.8711 19.3619C23.6619 19.8036 23.4149 20.2267 23.1328 20.6266L23.1914 24.0727C21.9051 25.2332 20.3827 26.1075 18.7266 26.6369L15.7383 24.8616C15.2467 24.8965 14.7533 24.8965 14.2617 24.8616L11.2852 26.6253C9.6238 26.1056 8.09636 25.2346 6.8086 24.0727L6.86719 20.6382C6.58743 20.2328 6.34056 19.806 6.12891 19.3619L3.09375 17.6912C2.71477 16.0105 2.71077 14.2683 3.08203 12.586L6.12891 10.9152C6.33807 10.4735 6.58507 10.0504 6.86719 9.65047L6.8086 6.20446C8.09491 5.04392 9.61733 4.16958 11.2734 3.64026L14.2617 5.41548C14.7533 5.38066 15.2467 5.38066 15.7383 5.41548L18.7148 3.65186C20.3762 4.17154 21.9036 5.04251 23.1914 6.20446L23.1328 9.65047Z" stroke="white" stroke-width="2" stroke-linecap="round" stroke-linejoin="round"/>
</svg>
