<svg width="40" height="40" viewBox="0 0 40 40" fill="none" xmlns="http://www.w3.org/2000/svg">
<rect width="40" height="40" rx="10" fill="#7AAFFC"/>
<path d="M25.7179 25.1593C25.0742 25.1548 24.4383 25.0181 23.8495 24.7578C23.2608 24.4975 22.7318 24.1191 22.2952 23.646C21.3867 22.6491 20.8832 21.3488 20.8832 20C20.8832 18.6511 21.3867 17.3509 22.2952 16.3539C22.7292 15.8777 23.2578 15.4974 23.8471 15.2372C24.4365 14.9769 25.0736 14.8425 25.7179 14.8425C26.3621 14.8425 26.9993 14.9769 27.5886 15.2372C28.178 15.4974 28.7065 15.8777 29.1405 16.3539C30.0556 17.3476 30.5635 18.6491 30.5635 20C30.5635 21.3508 30.0556 22.6523 29.1405 23.646C28.7052 24.1206 28.1764 24.4999 27.5874 24.7604C26.9984 25.0208 26.3619 25.1566 25.7179 25.1593V25.1593Z" stroke="white" stroke-width="2" stroke-linecap="round" stroke-linejoin="round"/>
<path d="M15.1556 26.0937C14.3951 26.09 13.6436 25.9294 12.948 25.6218C12.2525 25.3142 11.6279 24.8663 11.1135 24.3062C10.035 23.1314 9.43667 21.5947 9.43667 20C9.43667 18.4052 10.035 16.8685 11.1135 15.6937C11.6265 15.1304 12.2514 14.6804 12.9484 14.3725C13.6453 14.0646 14.3988 13.9055 15.1607 13.9055C15.9226 13.9055 16.6762 14.0646 17.3731 14.3725C18.07 14.6804 18.695 15.1304 19.208 15.6937C20.2864 16.8685 20.8848 18.4052 20.8848 20C20.8848 21.5947 20.2864 23.1314 19.208 24.3062C18.6924 24.8676 18.0662 25.3162 17.3688 25.6238C16.6714 25.9314 15.9179 26.0914 15.1556 26.0937Z" stroke="white" stroke-width="2" stroke-linecap="round" stroke-linejoin="round"/>
</svg>
