<svg width="40" height="40" viewBox="0 0 40 40" fill="none" xmlns="http://www.w3.org/2000/svg">
<rect width="40" height="40" rx="10" fill="#7AAFFC"/>
<path d="M22.5312 13.5L27.4063 10.25V29.75" stroke="#F2F2F2" stroke-width="2" stroke-linecap="round" stroke-linejoin="round"/>
<path d="M8.125 10.25H17.8751L12.1875 18.375C13.1228 18.3751 14.0437 18.6058 14.8685 19.0467C15.6933 19.4877 16.3967 20.1252 16.9163 20.9029C17.4358 21.6806 17.7556 22.5744 17.8473 23.5052C17.9389 24.436 17.7996 25.375 17.4417 26.2391C17.0838 27.1032 16.5183 27.8656 15.7953 28.459C15.0723 29.0523 14.2141 29.4582 13.2968 29.6407C12.3795 29.8232 11.4313 29.7766 10.5363 29.5052C9.64128 29.2337 8.82701 28.7457 8.16563 28.0844" stroke="#F2F2F2" stroke-width="2" stroke-linecap="round" stroke-linejoin="round"/>
</svg>
