<svg width="40" height="40" viewBox="0 0 40 40" fill="none" xmlns="http://www.w3.org/2000/svg">
<rect width="40" height="40" rx="10" fill="#7AAFFC"/>
<path d="M4.0625 15.625H8.9375L6.09375 19.6875C6.56139 19.6875 7.02181 19.8029 7.43422 20.0234C7.84663 20.2438 8.19831 20.5626 8.4581 20.9514C8.71789 21.3403 8.87778 21.7872 8.92361 22.2526C8.96943 22.718 8.89978 23.1875 8.72082 23.6195C8.54185 24.0516 8.2591 24.4328 7.89761 24.7295C7.53612 25.0262 7.10704 25.2291 6.64839 25.3203C6.18973 25.4116 5.71566 25.3883 5.26814 25.2526C4.82063 25.1168 4.4135 24.8728 4.08281 24.5422" stroke="#F2F2F2" stroke-width="2" stroke-linecap="round" stroke-linejoin="round"/>
<path d="M17.3477 21.1094L20.875 15.625" stroke="#F2F2F2" stroke-width="2" stroke-linecap="round" stroke-linejoin="round"/>
<path d="M20 25.375C21.6914 25.375 23.0625 24.1018 23.0625 22.5312C23.0625 20.9607 21.6914 19.6875 20 19.6875C18.3086 19.6875 16.9375 20.9607 16.9375 22.5312C16.9375 24.1018 18.3086 25.375 20 25.375Z" stroke="#F2F2F2" stroke-width="2" stroke-linecap="round" stroke-linejoin="round"/>
<path d="M35.9375 15.625H31.8598L31.0625 20.5203C31.5991 19.9872 32.3247 19.6881 33.0811 19.6881C33.8374 19.6881 34.563 19.9872 35.0996 20.5203C35.3649 20.7837 35.5755 21.097 35.7192 21.4421C35.8629 21.7872 35.9369 22.1574 35.9369 22.5312C35.9369 22.9051 35.8629 23.2753 35.7192 23.6204C35.5755 23.9655 35.3649 24.2788 35.0996 24.5422C34.563 25.0753 33.8374 25.3744 33.0811 25.3744C32.3247 25.3744 31.5991 25.0753 31.0625 24.5422" stroke="#F2F2F2" stroke-width="2" stroke-linecap="round" stroke-linejoin="round"/>
</svg>
