<svg width="30" height="30" viewBox="0 0 30 30" fill="none" xmlns="http://www.w3.org/2000/svg">
<path d="M16.8371 9.41291C17.2032 9.77903 17.7968 9.77903 18.1629 9.41291L19.0625 8.51332L19.0625 21.25C19.0625 21.7678 19.4822 22.1875 20 22.1875C20.5178 22.1875 20.9375 21.7678 20.9375 21.25L20.9375 8.51332L21.8371 9.41291C22.2032 9.77903 22.7968 9.77903 23.1629 9.41291C23.529 9.0468 23.529 8.4532 23.1629 8.08709L20.6629 5.58709C20.2968 5.22097 19.7032 5.22097 19.3371 5.58709L16.8371 8.08709C16.471 8.4532 16.471 9.0468 16.8371 9.41291Z" fill="currentColor"/>
<rect x="0.5" y="0.5" width="29" height="29" rx="5.5" stroke="currentColor"/>
</svg>
