<svg width="30" height="30" viewBox="0 0 30 30" fill="none" xmlns="http://www.w3.org/2000/svg">
<path d="M10.9375 21.4867L11.8371 20.5871C12.2032 20.221 12.7968 20.221 13.1629 20.5871C13.529 20.9532 13.529 21.5468 13.1629 21.9129L10.6629 24.4129C10.2968 24.779 9.7032 24.779 9.33709 24.4129L6.83709 21.9129C6.47097 21.5468 6.47097 20.9532 6.83709 20.5871C7.2032 20.221 7.7968 20.221 8.16291 20.5871L9.0625 21.4867L9.0625 8.75C9.0625 8.23223 9.48223 7.8125 10 7.8125C10.5178 7.8125 10.9375 8.23223 10.9375 8.75L10.9375 21.4867Z" fill="black"/>
<rect x="0.5" y="0.5" width="29" height="29" rx="5.5" stroke="black"/>
</svg>
