<svg width="20" height="20" viewBox="0 0 26 26" fill="none" xmlns="http://www.w3.org/2000/svg">
<path d="M10.8333 2.4375C10.3846 2.4375 10.0208 2.80127 10.0208 3.25V4.0625H5.41663C4.96789 4.0625 4.60413 4.42627 4.60413 4.875C4.60413 5.32373 4.96789 5.6875 5.41663 5.6875H20.5833C21.032 5.6875 21.3958 5.32373 21.3958 4.875C21.3958 4.42627 21.032 4.0625 20.5833 4.0625H15.9791V3.25C15.9791 2.80127 15.6154 2.4375 15.1666 2.4375H10.8333Z" fill="#FF0000"/>
<path d="M10.8333 11.5375C11.282 11.5375 11.6458 11.9013 11.6458 12.35L11.6458 19.9333C11.6458 20.3821 11.282 20.7458 10.8333 20.7458C10.3846 20.7458 10.0208 20.3821 10.0208 19.9333L10.0208 12.35C10.0208 11.9013 10.3846 11.5375 10.8333 11.5375Z" fill="#FF0000"/>
<path d="M15.9791 12.35C15.9791 11.9013 15.6154 11.5375 15.1666 11.5375C14.7179 11.5375 14.3541 11.9013 14.3541 12.35V19.9333C14.3541 20.3821 14.7179 20.7458 15.1666 20.7458C15.6154 20.7458 15.9791 20.3821 15.9791 19.9333V12.35Z" fill="#FF0000"/>
<path fill-rule="evenodd" clip-rule="evenodd" d="M6.49067 8.57694C6.53639 8.16546 6.88419 7.85417 7.2982 7.85417H18.7017C19.1157 7.85417 19.4635 8.16546 19.5092 8.57694L19.7261 10.5284C20.1191 14.0658 20.1191 17.6359 19.7261 21.1734L19.7047 21.3655C19.5487 22.7696 18.4604 23.8893 17.0613 24.0852C14.3669 24.4624 11.633 24.4624 8.93863 24.0852C7.53946 23.8893 6.45121 22.7696 6.29519 21.3655L6.27384 21.1734C5.88079 17.6359 5.88079 14.0658 6.27384 10.5284L6.49067 8.57694ZM8.02542 9.47917L7.8889 10.7078C7.50911 14.126 7.50911 17.5757 7.8889 20.9939L7.91025 21.186C7.98424 21.852 8.50036 22.383 9.16393 22.4759C11.7089 22.8322 14.291 22.8322 16.836 22.4759C17.4995 22.383 18.0157 21.852 18.0897 21.186L18.111 20.9939C18.4908 17.5757 18.4908 14.126 18.111 10.7079L17.9745 9.47917H8.02542Z" fill="#FF0000"/>
</svg>
