<?xml version="1.0" encoding="utf-8"?>
<!-- Generator: Adobe Illustrator 24.0.1, SVG Export Plug-In . SVG Version: 6.00 Build 0)  -->
<svg width="40" height="40" version="1.1" id="Слой_1" xmlns="http://www.w3.org/2000/svg" xmlns:xlink="http://www.w3.org/1999/xlink" x="0px" y="0px"
	 viewBox="0 0 40 40" style="enable-background:new 0 0 40 40;" xml:space="preserve">
<style type="text/css">
	.st0{fill:#94B8FF;}
	.st1{fill:#FFFFFF;}
	.st2{fill-rule:evenodd;clip-rule:evenodd;fill:#FFFFFF;}
</style>
<circle class="st0" cx="20" cy="20" r="20"/>
<path class="st1" d="M18.3,11.6c-0.3,0-0.6,0.3-0.6,0.6v0.6h-3.5c-0.3,0-0.6,0.3-0.6,0.6c0,0.3,0.3,0.6,0.6,0.6h11.7
	c0.3,0,0.6-0.3,0.6-0.6c0-0.3-0.3-0.6-0.6-0.6h-3.5v-0.6c0-0.3-0.3-0.6-0.6-0.6H18.3z"/>
<path class="st1" d="M18.3,18.6c0.3,0,0.6,0.3,0.6,0.6V25c0,0.3-0.3,0.6-0.6,0.6s-0.6-0.3-0.6-0.6v-5.8C17.7,18.8,18,18.6,18.3,18.6
	z"/>
<path class="st1" d="M22.3,19.2c0-0.3-0.3-0.6-0.6-0.6c-0.3,0-0.6,0.3-0.6,0.6V25c0,0.3,0.3,0.6,0.6,0.6c0.3,0,0.6-0.3,0.6-0.6V19.2
	z"/>
<path class="st2" d="M15,16.3c0-0.3,0.3-0.6,0.6-0.6h8.8c0.3,0,0.6,0.2,0.6,0.6l0.2,1.5c0.3,2.7,0.3,5.5,0,8.2l0,0.1
	c-0.1,1.1-1,1.9-2,2.1c-2.1,0.3-4.2,0.3-6.2,0c-1.1-0.2-1.9-1-2-2.1l0-0.1c-0.3-2.7-0.3-5.5,0-8.2L15,16.3z M16.2,17l-0.1,0.9
	c-0.3,2.6-0.3,5.3,0,7.9l0,0.1c0.1,0.5,0.5,0.9,1,1c2,0.3,3.9,0.3,5.9,0c0.5-0.1,0.9-0.5,1-1l0-0.1c0.3-2.6,0.3-5.3,0-7.9L23.8,17
	H16.2z"/>
</svg>
