<svg width="50" height="50" viewBox="0 0 50 50" fill="none" xmlns="http://www.w3.org/2000/svg">
<rect width="50" height="50" rx="10" fill="#7AAFFC"/>
<path d="M14 17V33C14 33.5304 14.2107 34.0391 14.5858 34.4142C14.9609 34.7893 15.4696 35 16 35H36C36.2652 35 36.5196 34.8946 36.7071 34.7071C36.8946 34.5196 37 34.2652 37 34V20C37 19.7348 36.8946 19.4804 36.7071 19.2929C36.5196 19.1054 36.2652 19 36 19H16C15.4696 19 14.9609 18.7893 14.5858 18.4142C14.2107 18.0391 14 17.5304 14 17ZM14 17C14 16.4696 14.2107 15.9609 14.5858 15.5858C14.9609 15.2107 15.4696 15 16 15H33" stroke="#F2F2F2" stroke-width="2" stroke-linecap="round" stroke-linejoin="round"/>
<path d="M31.5 28.5C32.3284 28.5 33 27.8284 33 27C33 26.1716 32.3284 25.5 31.5 25.5C30.6716 25.5 30 26.1716 30 27C30 27.8284 30.6716 28.5 31.5 28.5Z" fill="#F2F2F2"/>
</svg>
