<svg width="35" height="28" viewBox="0 0 35 28" fill="none" xmlns="http://www.w3.org/2000/svg">
<g clip-path="url(#clip0_1931_2242)">
<path d="M29.2578 2.24233C28.7438 1.72827 28.7438 0.897021 29.2578 0.388427C29.7719 -0.120166 30.6031 -0.125635 31.1117 0.388427L34.6117 3.88843C34.8578 4.13452 34.9945 4.46811 34.9945 4.81811C34.9945 5.16811 34.8578 5.50171 34.6117 5.7478L31.1117 9.2478C30.5977 9.76187 29.7664 9.76187 29.2578 9.2478C28.7492 8.73374 28.7438 7.90249 29.2578 7.3939L30.5156 6.13608L21 6.12515C20.2727 6.12515 19.6875 5.53999 19.6875 4.81265C19.6875 4.0853 20.2727 3.50015 21 3.50015H30.5211L29.2578 2.24233ZM5.74219 20.6173L4.48438 21.8751H14C14.7273 21.8751 15.3125 22.4603 15.3125 23.1876C15.3125 23.915 14.7273 24.5001 14 24.5001H4.47891L5.73672 25.758C6.25078 26.272 6.25078 27.1033 5.73672 27.6119C5.22266 28.1205 4.39141 28.1259 3.88281 27.6119L0.382812 24.1173C0.136719 23.8712 0 23.5376 0 23.1876C0 22.8376 0.136719 22.5041 0.382812 22.258L3.88281 18.758C4.39687 18.2439 5.22813 18.2439 5.73672 18.758C6.24531 19.272 6.25078 20.1033 5.73672 20.6119L5.74219 20.6173ZM5.25 3.50015H18.4789C18.2766 3.8939 18.1562 4.33687 18.1562 4.81265C18.1562 6.38218 19.4305 7.6564 21 7.6564H27.4203C27.2016 8.58608 27.4531 9.5978 28.175 10.3251C29.2852 11.4353 31.0844 11.4353 32.1945 10.3251L33.25 9.26968V21.0001C33.25 22.9306 31.6805 24.5001 29.75 24.5001H16.5211C16.7234 24.1064 16.8438 23.6634 16.8438 23.1876C16.8438 21.6181 15.5695 20.3439 14 20.3439H7.57969C7.79844 19.4142 7.54688 18.4025 6.825 17.6751C5.71484 16.565 3.91562 16.565 2.80547 17.6751L1.75 18.7306V7.00015C1.75 5.06968 3.31953 3.50015 5.25 3.50015ZM8.75 7.00015H5.25V10.5001C7.18047 10.5001 8.75 8.93061 8.75 7.00015ZM29.75 17.5001C27.8195 17.5001 26.25 19.0697 26.25 21.0001H29.75V17.5001ZM17.5 19.2501C18.8924 19.2501 20.2277 18.697 21.2123 17.7125C22.1969 16.7279 22.75 15.3925 22.75 14.0001C22.75 12.6078 22.1969 11.2724 21.2123 10.2878C20.2277 9.30327 18.8924 8.75015 17.5 8.75015C16.1076 8.75015 14.7723 9.30327 13.7877 10.2878C12.8031 11.2724 12.25 12.6078 12.25 14.0001C12.25 15.3925 12.8031 16.7279 13.7877 17.7125C14.7723 18.697 16.1076 19.2501 17.5 19.2501Z" fill="currentColor"/>
</g>
<defs>
<clipPath id="clip0_1931_2242">
<rect width="35" height="28" fill="currentColor"/>
</clipPath>
</defs>
</svg>
