<svg width="40" height="40" viewBox="0 0 40 40" fill="none" xmlns="http://www.w3.org/2000/svg">
<circle cx="20" cy="20" r="20" fill="#94B8FF"/>
<path d="M17.2422 26.8751H13.75C13.5842 26.8751 13.4253 26.8092 13.3081 26.692C13.1909 26.5748 13.125 26.4158 13.125 26.2501V22.7579C13.1247 22.6767 13.1404 22.5963 13.1713 22.5212C13.2021 22.4461 13.2474 22.3779 13.3047 22.3204L22.6797 12.9454C22.7378 12.8863 22.8072 12.8394 22.8836 12.8074C22.9601 12.7754 23.0421 12.7589 23.125 12.7589C23.2079 12.7589 23.2899 12.7754 23.3664 12.8074C23.4428 12.8394 23.5122 12.8863 23.5703 12.9454L27.0547 16.4297C27.1137 16.4879 27.1606 16.5572 27.1927 16.6337C27.2247 16.7101 27.2411 16.7922 27.2411 16.8751C27.2411 16.9579 27.2247 17.04 27.1927 17.1164C27.1606 17.1929 27.1137 17.2622 27.0547 17.3204L17.6797 26.6954C17.6222 26.7526 17.5539 26.7979 17.4788 26.8288C17.4038 26.8596 17.3233 26.8753 17.2422 26.8751V26.8751Z" stroke="white" stroke-width="1.5" stroke-linecap="round" stroke-linejoin="round"/>
<path d="M20.625 15L25 19.375" stroke="white" stroke-width="1.5" stroke-linecap="round" stroke-linejoin="round"/>
</svg>
