<svg width="40" height="40" viewBox="0 0 40 40" fill="none" xmlns="http://www.w3.org/2000/svg">
<circle cx="20" cy="20" r="20" fill="#94B8FF"/>
<path d="M16.2344 17.7891H12.4844V14.0391" stroke="white" stroke-width="1.5" stroke-linecap="round" stroke-linejoin="round"/>
<path d="M24.8594 15.1406C24.2216 14.5019 23.4641 13.9952 22.6303 13.6494C21.7965 13.3037 20.9027 13.1257 20 13.1257C19.0973 13.1257 18.2035 13.3037 17.3697 13.6494C16.5359 13.9952 15.7784 14.5019 15.1406 15.1406L12.4844 17.7891" stroke="white" stroke-width="1.5" stroke-linecap="round" stroke-linejoin="round"/>
<path d="M23.7656 22.2109H27.5156V25.9609" stroke="white" stroke-width="1.5" stroke-linecap="round" stroke-linejoin="round"/>
<path d="M15.1406 24.8594C15.7784 25.4981 16.5359 26.0048 17.3697 26.3506C18.2035 26.6963 19.0973 26.8743 20 26.8743C20.9027 26.8743 21.7965 26.6963 22.6303 26.3506C23.4641 26.0048 24.2216 25.4981 24.8594 24.8594L27.5156 22.2109" stroke="white" stroke-width="1.5" stroke-linecap="round" stroke-linejoin="round"/>
</svg>
