<svg width="32" height="32" viewBox="0 0 32 32" fill="none" xmlns="http://www.w3.org/2000/svg">
<path d="M13.9622 11.2928C14.3527 10.9023 14.9859 10.9023 15.3764 11.2928L18.6693 14.5857L21.9622 11.2929C22.3527 10.9023 22.9859 10.9023 23.3764 11.2929C23.7669 11.6834 23.7669 12.3165 23.3764 12.7071L20.0835 16L23.3764 19.2928C23.7669 19.6834 23.7669 20.3165 23.3764 20.7071C22.9859 21.0976 22.3527 21.0976 21.9622 20.7071L18.6693 17.4142L15.3764 20.7071C14.9859 21.0976 14.3527 21.0976 13.9622 20.7071C13.5717 20.3165 13.5717 19.6834 13.9622 19.2929L17.2551 16L13.9622 12.7071C13.5716 12.3165 13.5716 11.6834 13.9622 11.2928Z" fill="white"/>
<path fill-rule="evenodd" clip-rule="evenodd" d="M11.2105 6.59998C9.67577 6.59998 8.22604 7.30483 7.27814 8.51188L2.52947 14.5589C1.86518 15.4048 1.86518 16.5952 2.52947 17.4411L7.27814 23.4881C8.22604 24.6951 9.67578 25.4 11.2105 25.4H25.4061C27.4311 25.4 29.0728 23.7584 29.0728 21.7333V10.2666C29.0728 8.2416 27.4311 6.59998 25.4061 6.59998H11.2105ZM8.8511 9.74712C9.41984 9.02289 10.2897 8.59998 11.2105 8.59998H25.4061C26.3266 8.59998 27.0728 9.34617 27.0728 10.2666V21.7333C27.0728 22.6538 26.3266 23.4 25.4061 23.4H11.2105C10.2897 23.4 9.41984 22.9771 8.8511 22.2528L4.10242 16.2058C4.00753 16.085 4.00753 15.9149 4.10242 15.7941L8.8511 9.74712Z" fill="white"/>
</svg>
