<svg width="24" height="24" viewBox="0 0 24 24" fill="none" xmlns="http://www.w3.org/2000/svg">
<path fill-rule="evenodd" clip-rule="evenodd" d="M6.86974 2.59367C7.00783 2.37944 7.24526 2.25 7.50013 2.25H8.7606C8.77509 2.25 8.78957 2.25042 8.80404 2.25126C8.97353 2.26109 9.13887 2.30764 9.2886 2.38768C9.43263 2.46466 9.55892 2.57087 9.65941 2.69943L15.529 9.83556L18.2369 9.76463C18.4301 9.75416 18.9636 9.75 19.112 9.75C20.2048 9.75 21.1684 9.8963 21.8886 10.2132C22.6036 10.5278 23.2501 11.1048 23.2501 12C23.2501 12.8956 22.6017 13.4734 21.8874 13.7888C21.1667 14.107 20.2032 14.2547 19.1125 14.2547C18.9625 14.2547 18.4325 14.2505 18.2376 14.2401L15.5299 14.168L9.64662 21.3018C9.54614 21.43 9.42 21.5359 9.2762 21.6126C9.12672 21.6924 8.9617 21.7389 8.79253 21.7487C8.778 21.7496 8.76344 21.75 8.74888 21.75H7.50013C7.24527 21.75 7.00786 21.6206 6.86977 21.4064C6.73168 21.1922 6.71181 20.9225 6.81702 20.6904L9.8393 14.0225L5.30372 13.921L3.64954 15.9262C3.64586 15.9308 3.64197 15.9358 3.6379 15.941C3.55783 16.0429 3.40191 16.2413 3.16098 16.3634C2.89977 16.4958 2.62576 16.5 2.43763 16.5H1.59763C1.50548 16.5 1.03382 16.4889 0.822689 16.0242C0.738717 15.8394 0.746278 15.6712 0.755281 15.5886C0.764037 15.5083 0.782535 15.4402 0.794142 15.401L1.72318 12.0704C1.73001 12.0459 1.73807 12.0218 1.74735 11.9981C1.74865 11.9948 1.74865 11.9911 1.74735 11.9878C1.73798 11.9639 1.72984 11.9396 1.72296 11.9148L0.794272 8.5717C0.794138 8.57126 0.793983 8.57075 0.793808 8.57018C0.785618 8.54334 0.732831 8.37037 0.763071 8.17381C0.783118 8.0435 0.848088 7.84448 1.03575 7.68724C1.22013 7.53273 1.42332 7.50234 1.55076 7.50234H2.43482C2.82599 7.50234 3.33387 7.65853 3.65355 8.06473L5.27421 10.0358L9.83619 9.96832L6.81707 3.30971C6.71181 3.07759 6.73165 2.80789 6.86974 2.59367ZM8.76488 3.97318L11.6038 10.2343C11.6649 10.3671 11.6912 10.5134 11.6801 10.6593C11.6687 10.8081 11.6189 10.9513 11.5355 11.075C11.452 11.1987 11.3379 11.2985 11.2042 11.3647C11.0824 11.425 10.9483 11.4555 10.8128 11.454L5.1272 11.5381C4.95249 11.5423 4.77918 11.5058 4.62094 11.4315C4.46418 11.3578 4.32654 11.2491 4.21863 11.1138L2.49341 9.01555C2.49304 9.01539 2.49265 9.01522 2.49225 9.01505C2.48653 9.01263 2.47976 9.01026 2.47234 9.00822L3.15966 11.4825C3.27793 11.8127 3.27788 12.1737 3.15951 12.5039L2.46329 14.9999C2.46546 14.9999 2.4676 14.9999 2.4697 14.9998C2.47262 14.9962 2.47566 14.9923 2.47883 14.9884C2.48174 14.9847 2.48469 14.981 2.48768 14.9774L4.25143 12.8394C4.35938 12.7055 4.49641 12.5978 4.65218 12.5247C4.81072 12.4502 4.98436 12.4135 5.15947 12.4174L10.8164 12.5439L10.8167 12.5439C10.9593 12.5472 11.099 12.5852 11.2237 12.6547C11.3483 12.7242 11.4541 12.8231 11.5318 12.9427C11.6096 13.0624 11.6569 13.1992 11.6698 13.3413C11.6826 13.4834 11.6606 13.6265 11.6056 13.7581C11.6027 13.765 11.5998 13.7719 11.5967 13.7787L8.77794 19.9975L14.5596 12.9869C14.6597 12.8598 14.7744 12.7951 14.8244 12.7691C14.8954 12.7323 14.9602 12.7112 15.0035 12.6991C15.0838 12.6767 15.1789 12.6609 15.2734 12.6609C15.2801 12.6609 15.2867 12.661 15.2934 12.6612L18.2887 12.7409C18.2972 12.7411 18.3056 12.7415 18.3141 12.742C18.4416 12.7497 18.9466 12.7547 19.1125 12.7547C20.0969 12.7547 20.8272 12.6172 21.2816 12.4166C21.7424 12.2131 21.7501 12.0386 21.7501 12C21.7501 11.961 21.7432 11.788 21.2845 11.5862C20.8309 11.3866 20.1005 11.25 19.112 11.25C18.9458 11.25 18.4373 11.255 18.3149 11.2626C18.3059 11.2632 18.2969 11.2636 18.2879 11.2638L15.2521 11.3433C15.1047 11.3488 14.9584 11.3153 14.828 11.2458C14.7181 11.1873 14.6231 11.1052 14.5494 11.0059L8.76488 3.97318ZM2.23252 15.8266C2.23272 15.8259 2.23293 15.8252 2.23313 15.8246C2.23213 15.8282 2.23179 15.829 2.23252 15.8266Z" fill="white"/>
</svg>
