<svg width="39" height="39" viewBox="0 0 39 39" fill="none" xmlns="http://www.w3.org/2000/svg">
<path d="M13.2163 8.69711H9.65381C8.99797 8.69711 8.46631 9.22878 8.46631 9.88461V28.8846C8.46631 29.5405 8.99797 30.0721 9.65381 30.0721H13.2163C13.8721 30.0721 14.4038 29.5405 14.4038 28.8846V9.88461C14.4038 9.22878 13.8721 8.69711 13.2163 8.69711Z" stroke="white" stroke-width="2" stroke-linecap="round" stroke-linejoin="round"/>
<path d="M28.6538 8.69711H25.0913C24.4355 8.69711 23.9038 9.22878 23.9038 9.88461V28.8846C23.9038 29.5405 24.4355 30.0721 25.0913 30.0721H28.6538C29.3096 30.0721 29.8413 29.5405 29.8413 28.8846V9.88461C29.8413 9.22878 29.3096 8.69711 28.6538 8.69711Z" stroke="white" stroke-width="2" stroke-linecap="round" stroke-linejoin="round"/>
<path d="M29.8413 12.2596H33.4038C33.7188 12.2596 34.0208 12.3847 34.2435 12.6074C34.4662 12.8301 34.5913 13.1322 34.5913 13.4471V25.3221C34.5913 25.6371 34.4662 25.9391 34.2435 26.1618C34.0208 26.3845 33.7188 26.5096 33.4038 26.5096H29.8413" stroke="white" stroke-width="2" stroke-linecap="round" stroke-linejoin="round"/>
<path d="M8.46631 26.5096H4.90381C4.58886 26.5096 4.28682 26.3845 4.06412 26.1618C3.84142 25.9391 3.71631 25.6371 3.71631 25.3221V13.4471C3.71631 13.1322 3.84142 12.8301 4.06412 12.6074C4.28682 12.3847 4.58886 12.2596 4.90381 12.2596H8.46631" stroke="white" stroke-width="2" stroke-linecap="round" stroke-linejoin="round"/>
<path d="M14.4038 19.3846H23.9038" stroke="white" stroke-width="2" stroke-linecap="round" stroke-linejoin="round"/>
<path d="M34.5913 19.3846H36.9663" stroke="white" stroke-width="2" stroke-linecap="round" stroke-linejoin="round"/>
<path d="M1.34131 19.3846H3.71631" stroke="white" stroke-width="2" stroke-linecap="round" stroke-linejoin="round"/>
</svg>
