<svg width="38" height="38" viewBox="0 0 38 38" fill="none" xmlns="http://www.w3.org/2000/svg">
<path d="M6.23438 10.6875H31.7656" stroke="white" stroke-width="2" stroke-linecap="round" stroke-linejoin="round"/>
<path d="M6.23438 17.8125H31.7656" stroke="white" stroke-width="2" stroke-linecap="round" stroke-linejoin="round"/>
<path d="M31.7657 28.5H6.23441V9.5C6.23244 9.03162 6.32325 8.56748 6.50159 8.13437C6.67992 7.70126 6.94226 7.30775 7.27346 6.97655C7.60466 6.64535 7.99817 6.38302 8.43128 6.20468C8.86439 6.02634 9.32852 5.93554 9.79691 5.9375H28.2032C28.6715 5.93554 29.1357 6.02634 29.5688 6.20468C30.0019 6.38302 30.3954 6.64535 30.7266 6.97655C31.0578 7.30775 31.3201 7.70126 31.4985 8.13437C31.6768 8.56748 31.7676 9.03162 31.7657 9.5V28.5Z" stroke="white" stroke-width="2" stroke-linecap="round" stroke-linejoin="round"/>
<path d="M31.7656 28.5V32.0625C31.7656 32.3774 31.6405 32.6795 31.4178 32.9022C31.1951 33.1249 30.8931 33.25 30.5781 33.25H27.0156C26.7007 33.25 26.3986 33.1249 26.1759 32.9022C25.9532 32.6795 25.8281 32.3774 25.8281 32.0625V28.5" stroke="white" stroke-width="2" stroke-linecap="round" stroke-linejoin="round"/>
<path d="M12.1719 28.5V32.0625C12.1719 32.3774 12.0468 32.6795 11.8241 32.9022C11.6014 33.1249 11.2993 33.25 10.9844 33.25H7.42188C7.10693 33.25 6.80489 33.1249 6.58219 32.9022C6.35949 32.6795 6.23438 32.3774 6.23438 32.0625V28.5" stroke="white" stroke-width="2" stroke-linecap="round" stroke-linejoin="round"/>
<path d="M12.4688 24.9375C13.4525 24.9375 14.25 24.14 14.25 23.1562C14.25 22.1725 13.4525 21.375 12.4688 21.375C11.485 21.375 10.6875 22.1725 10.6875 23.1562C10.6875 24.14 11.485 24.9375 12.4688 24.9375Z" fill="white"/>
<path d="M25.5312 24.9375C26.515 24.9375 27.3125 24.14 27.3125 23.1562C27.3125 22.1725 26.515 21.375 25.5312 21.375C24.5475 21.375 23.75 22.1725 23.75 23.1562C23.75 24.14 24.5475 24.9375 25.5312 24.9375Z" fill="white"/>
</svg>
