<svg width="38" height="38" viewBox="0 0 38 38" fill="none" xmlns="http://www.w3.org/2000/svg">
<path fill-rule="evenodd" clip-rule="evenodd" d="M11.6603 9.5C10.7619 9.5 10.0746 9.98608 9.83279 10.5504L9.83278 10.5504L7.02879 17.0928C6.77044 17.6956 6.07233 17.9748 5.46952 17.7165C4.86672 17.4581 4.58748 16.76 4.84584 16.1572L7.64982 9.61484C7.64982 9.61483 7.64982 9.61483 7.64982 9.61482C8.32087 8.04907 9.95959 7.125 11.6603 7.125H26.3393C28.0401 7.125 29.6788 8.04908 30.3498 9.61484L33.1538 16.1572C33.4121 16.76 33.1329 17.4581 32.5301 17.7165C31.9273 17.9748 31.2292 17.6956 30.9708 17.0928L28.1669 10.5504L29.2583 10.0826L28.1668 10.5504C27.925 9.98608 27.2377 9.5 26.3393 9.5H11.6603Z" fill="white"/>
<path fill-rule="evenodd" clip-rule="evenodd" d="M4.75 16.625C4.75 15.9692 5.28166 15.4375 5.9375 15.4375H32.0625C32.7183 15.4375 33.25 15.9692 33.25 16.625V27.3125C33.25 27.9683 32.7183 28.5 32.0625 28.5H5.9375C5.28166 28.5 4.75 27.9683 4.75 27.3125V16.625ZM7.125 17.8125V26.125H30.875V17.8125H7.125Z" fill="white"/>
<path fill-rule="evenodd" clip-rule="evenodd" d="M5.9375 26.125C6.59334 26.125 7.125 26.6567 7.125 27.3125C7.125 26.6567 7.65666 26.125 8.3125 26.125C8.96834 26.125 9.5 26.6567 9.5 27.3125V29.6875C9.5 30.3433 8.96834 30.875 8.3125 30.875H5.9375C5.28166 30.875 4.75 30.3433 4.75 29.6875V27.3125C4.75 26.6567 5.28166 26.125 5.9375 26.125Z" fill="white"/>
<path fill-rule="evenodd" clip-rule="evenodd" d="M29.6875 26.125C30.3433 26.125 30.875 26.6567 30.875 27.3125C30.875 26.6567 31.4067 26.125 32.0625 26.125C32.7183 26.125 33.25 26.6567 33.25 27.3125V29.6875C33.25 30.3433 32.7183 30.875 32.0625 30.875H29.6875C29.0317 30.875 28.5 30.3433 28.5 29.6875V27.3125C28.5 26.6567 29.0317 26.125 29.6875 26.125Z" fill="white"/>
<path fill-rule="evenodd" clip-rule="evenodd" d="M8.3125 21.375C8.3125 20.0633 9.37582 19 10.6875 19C11.9992 19 13.0625 20.0633 13.0625 21.375C13.0625 22.6867 11.9992 23.75 10.6875 23.75C9.37582 23.75 8.3125 22.6867 8.3125 21.375Z" fill="white"/>
<path fill-rule="evenodd" clip-rule="evenodd" d="M24.9375 21.375C24.9375 20.0633 26.0008 19 27.3125 19C28.6242 19 29.6875 20.0633 29.6875 21.375C29.6875 22.6867 28.6242 23.75 27.3125 23.75C26.0008 23.75 24.9375 22.6867 24.9375 21.375Z" fill="white"/>
</svg>
