      <svg width="50" height="53" viewBox="0 0 50 53" fill="none" xmlns="http://www.w3.org/2000/svg">
        <rect width="50" height="53" rx="10" fill="none" />
        <path
          d="M22.5 13.8125C21.9822 13.8125 21.5625 14.2322 21.5625 14.75V15.6875H16.25C15.7322 15.6875 15.3125 16.1072 15.3125 16.625C15.3125 17.1428 15.7322 17.5625 16.25 17.5625H33.75C34.2678 17.5625 34.6875 17.1428 34.6875 16.625C34.6875 16.1072 34.2678 15.6875 33.75 15.6875H28.4375V14.75C28.4375 14.2322 28.0178 13.8125 27.5 13.8125H22.5Z"
          fill="white"
        />
        <path
          d="M22.5 24.3125C23.0178 24.3125 23.4375 24.7322 23.4375 25.25L23.4375 34C23.4375 34.5178 23.0178 34.9375 22.5 34.9375C21.9822 34.9375 21.5625 34.5178 21.5625 34L21.5625 25.25C21.5625 24.7322 21.9822 24.3125 22.5 24.3125Z"
          fill="white"
        />
        <path
          d="M28.4375 25.25C28.4375 24.7322 28.0178 24.3125 27.5 24.3125C26.9822 24.3125 26.5625 24.7322 26.5625 25.25V34C26.5625 34.5178 26.9822 34.9375 27.5 34.9375C28.0178 34.9375 28.4375 34.5178 28.4375 34V25.25Z"
          fill="white"
        />
        <path
          fillRule="evenodd"
          clipRule="evenodd"
          d="M17.4893 20.8965C17.542 20.4217 17.9433 20.0625 18.421 20.0625H31.5789C32.0566 20.0625 32.458 20.4217 32.5107 20.8965L32.7609 23.1482C33.2144 27.2298 33.2144 31.3491 32.7609 35.4308L32.7363 35.6525C32.5562 37.2727 31.3006 38.5646 29.6861 38.7906C26.5772 39.2258 23.4228 39.2258 20.3138 38.7906C18.6994 38.5646 17.4437 37.2727 17.2637 35.6525L17.2391 35.4308C16.7856 31.3491 16.7856 27.2298 17.2391 23.1482L17.4893 20.8965ZM19.2601 21.9375L19.1026 23.3552C18.6644 27.2992 18.6644 31.2797 19.1026 35.2237L19.1273 35.4454C19.2126 36.2138 19.8082 36.8265 20.5738 36.9337C23.5103 37.3448 26.4897 37.3448 29.4262 36.9337C30.1918 36.8265 30.7874 36.2138 30.8727 35.4454L30.8974 35.2237C31.3356 31.2797 31.3356 27.2993 30.8974 23.3552L30.7398 21.9375H19.2601Z"
          fill="white"
        />
      </svg>