<svg width="24" height="24" viewBox="0 0 24 24" fill="none" xmlns="http://www.w3.org/2000/svg">
<g clip-path="url(#clip0_1773_980)">
<path d="M20.4083 15.9901L12.1417 17.4278L9.79364 15.0798C9.7157 15.0014 9.60982 14.9576 9.49894 14.9576H5.33061C5.33061 14.7271 5.14429 14.5408 4.91378 14.5408H3.24644H0.328613V15.3745H2.82961V21.2101H0.328613V22.0438H3.24644H4.91378C5.14429 22.0438 5.33061 21.8575 5.33061 21.627H6.48274L10.9391 23.8554C11.1317 23.9516 11.3405 24 11.5485 24C11.7857 24 12.0224 23.9379 12.2346 23.8141L21.3282 18.5091C21.7451 18.266 22.0039 17.8154 22.0039 17.3328C22.0039 16.9297 21.8268 16.5495 21.5183 16.2898C21.2107 16.0301 20.8043 15.9214 20.4083 15.9901ZM4.49694 21.2101H3.66328V15.3745H4.49694V21.2101ZM20.9081 17.7888L11.8149 23.0938C11.6606 23.1838 11.4726 23.1897 11.3122 23.1096L6.76785 20.8375C6.70991 20.8083 6.64572 20.7933 6.58111 20.7933H5.33061V15.7913H9.32637L12.6106 19.0755C12.7523 19.2173 12.8336 19.4136 12.8336 19.6145C12.8336 20.0347 12.4918 20.3765 12.0716 20.3765C11.8711 20.3765 11.6744 20.2952 11.5327 20.1535L9.37681 17.9976L8.78741 18.587L10.9433 20.7429C11.2446 21.0442 11.6452 21.2101 12.0716 21.2101C12.9512 21.2101 13.6673 20.494 13.6673 19.6145C13.6673 19.1885 13.5014 18.7875 13.2 18.4861L12.8624 18.1485L20.5504 16.8113C20.7051 16.7834 20.8618 16.8267 20.9814 16.9276C21.1015 17.0285 21.1703 17.176 21.1703 17.3323C21.1703 17.5195 21.0698 17.6946 20.9081 17.7888Z" fill="white" stroke="white" stroke-width="0.5"/>
<path d="M23.6714 2.86948V2.03581H21.0533C20.9774 1.95703 20.872 2.03581 20.7536 2.03581H19.0863C18.8557 2.03581 18.6694 2.03581 18.6694 2.45265H17.5173L13.0605 0.160064C12.6474 -0.0466847 12.1631 -0.0629412 11.7654 0.169235L2.67178 5.45801C2.25495 5.70103 1.99609 6.1437 1.99609 6.6264C1.99609 7.02947 2.17325 7.40504 2.48129 7.66473C2.7293 7.87314 3.03901 7.98277 3.35747 7.98277C3.43584 7.98277 3.51378 7.97485 3.59173 7.96151L11.8579 6.52344L14.206 8.93565C14.2843 9.0136 14.3902 9.12198 14.5011 9.12198H18.6694C18.6694 9.12198 18.8557 9.53881 19.0863 9.53881H20.4539C20.5297 9.53881 20.6352 9.53881 20.7536 9.53881H23.6714V8.70514H21.1704V2.86948H23.6714ZM14.6737 8.28831L11.3898 4.94031C11.2456 4.79608 11.1664 4.57224 11.1664 4.36883C11.1664 3.94824 11.5082 3.59018 11.9284 3.59018C12.1318 3.59018 12.3231 3.66146 12.4674 3.80569L14.6232 5.95696L15.2126 5.36548L13.0572 3.20962C12.7558 2.90741 12.3548 2.7411 11.9284 2.7411C11.0489 2.7411 10.3328 3.4568 10.3328 4.33673C10.3328 4.76232 10.4982 5.1629 10.8 5.4651L11.1372 5.80232L3.44917 7.13952C3.29328 7.16661 3.1378 7.12368 3.01775 7.02322C2.89854 6.92235 2.82976 6.77479 2.82976 6.61848C2.82976 6.4309 2.93022 6.25583 3.09195 6.16163L12.1852 0.857009C12.3394 0.76739 12.5274 0.761138 12.6879 0.84117L17.2322 3.17794C17.2901 3.2067 17.3543 3.28631 17.4189 3.28631H18.6694V8.28831H14.6737ZM19.5031 2.86948H20.3368V8.70514H19.5031V2.86948Z" fill="white" stroke="white" stroke-width="0.5"/>
<path d="M11.9999 9.97565C11.3208 9.38124 10.2596 9.39667 9.60015 10.024C9.26585 10.3425 9.08203 10.7668 9.08203 11.2199C9.08203 11.6726 9.26585 12.0969 9.60015 12.415L11.7122 14.4258C11.7931 14.5025 11.8965 14.5408 11.9999 14.5408C12.1032 14.5408 12.2066 14.5025 12.2871 14.4262L14.3992 12.4154C14.7339 12.0969 14.9177 11.6726 14.9177 11.2199C14.9177 10.7668 14.7339 10.3425 14.3996 10.024C13.7397 9.39667 12.6785 9.38166 11.9999 9.97565ZM13.8248 11.811L11.9999 13.5483L10.175 11.811C10.0082 11.6517 9.9157 11.4417 9.9157 11.2195C9.9157 10.9973 10.0078 10.7868 10.175 10.6276C10.3546 10.4567 10.5906 10.3712 10.8261 10.3712C11.062 10.3712 11.2979 10.4567 11.4772 10.6276L11.7118 10.851C11.8731 11.004 12.1253 11.004 12.2866 10.851L12.5213 10.6276C12.8802 10.2858 13.4642 10.2862 13.8239 10.6272C13.9919 10.7868 14.084 10.9973 14.084 11.2195C14.084 11.4417 13.9915 11.6517 13.8248 11.811Z" fill="white" stroke="white" stroke-width="0.5"/>
<path d="M7.16279 8.77392L6.47168 8.30748C6.30578 8.55342 6.15488 8.81185 6.02441 9.07487L6.77096 9.44627C6.88476 9.21576 7.01689 8.98984 7.16279 8.77392Z" fill="white" stroke="white" stroke-width="0.5"/>
<path d="M5.47021 13.4049C5.53107 13.6959 5.61152 13.9843 5.70948 14.2607L6.49521 13.9831C6.40976 13.7413 6.33931 13.4891 6.28596 13.234L5.47021 13.4049Z" fill="white" stroke="white" stroke-width="0.5"/>
<path d="M5.45459 10.7551L6.27283 10.9148C6.32244 10.6605 6.38955 10.4079 6.4725 10.1636L5.6826 9.89562C5.58798 10.1749 5.5117 10.4642 5.45459 10.7551Z" fill="white" stroke="white" stroke-width="0.5"/>
<path d="M5.33057 12.0411C5.33098 12.2032 5.33682 12.3641 5.34807 12.5238L6.17924 12.465C6.16965 12.3245 6.16465 12.182 6.16423 12.0398C6.16423 11.9214 6.16757 11.8039 6.17465 11.6868L5.34265 11.6355C5.33473 11.7697 5.33057 11.9043 5.33057 12.0411Z" fill="white" stroke="white" stroke-width="0.5"/>
<path d="M17.5039 10.0949C17.5906 10.3404 17.6606 10.5921 17.7127 10.8435L18.5293 10.6743C18.4693 10.3866 18.3888 10.0986 18.2905 9.81808L17.5039 10.0949Z" fill="white" stroke="white" stroke-width="0.5"/>
<path d="M16.8374 15.304L17.5277 15.7713C17.6936 15.5258 17.8449 15.2678 17.9758 15.0035L17.2292 14.6321C17.115 14.8634 16.9829 15.0894 16.8374 15.304Z" fill="white" stroke="white" stroke-width="0.5"/>
<path d="M17.5278 13.9151L18.3177 14.1832C18.4128 13.9039 18.489 13.615 18.5462 13.3237L17.7279 13.164C17.6779 13.4187 17.6108 13.6709 17.5278 13.9151Z" fill="white" stroke="white" stroke-width="0.5"/>
<path d="M18.6695 12.0411C18.6699 11.8772 18.6636 11.7147 18.652 11.5534L17.8208 11.6142C17.8308 11.7543 17.8362 11.896 17.8358 12.0398C17.8358 12.1578 17.8325 12.2749 17.8254 12.3916L18.6574 12.4429C18.6653 12.3091 18.6695 12.1749 18.6695 12.0411Z" fill="white" stroke="white" stroke-width="0.5"/>
</g>
<defs>
<clipPath id="clip0_1773_980">
<rect width="24" height="24" fill="white"/>
</clipPath>
</defs>
</svg>
