<svg width="24" height="24" viewBox="0 0 24 24" fill="none" xmlns="http://www.w3.org/2000/svg">
<g clip-path="url(#clip0_1773_1031)">
<path d="M12.0249 0.758728C9.89971 0.758728 8.11218 2.25111 7.64648 4.2392C7.09811 3.4998 6.22663 3.01166 5.24268 3.01166C3.5947 3.01166 2.24268 4.36368 2.24268 6.01166C2.24268 6.9028 2.64561 7.69866 3.26953 8.24994H1.5C1.0858 8.24998 0.750041 8.58574 0.75 8.99994V22.4999C0.750041 22.9141 1.0858 23.2499 1.5 23.2499H17.25C17.6642 23.2499 18 22.9141 18 22.4999V20.2514H18.8906C19.2041 21.1187 20.0308 21.7499 21 21.7499H22.5C22.9142 21.7499 23.25 21.4141 23.25 20.9999V11.2499C23.25 10.8357 22.9142 10.5 22.5 10.4999H21C20.0292 10.4999 19.2014 11.1334 18.8892 12.0029H18V8.99994C18 8.58574 17.6642 8.24998 17.25 8.24994H15.3735C16.0871 7.45406 16.5264 6.40674 16.5264 5.25873C16.5264 2.78232 14.5013 0.758728 12.0249 0.758728ZM12.0249 2.25873C13.6906 2.25873 15.0264 3.59301 15.0264 5.25873C15.0264 6.88986 13.7432 8.19602 12.126 8.24994H11.9238C10.3067 8.1959 9.0249 6.88978 9.0249 5.25873C9.0249 3.59301 10.3592 2.25873 12.0249 2.25873ZM5.24268 4.51166C6.07999 4.51166 6.74268 5.17433 6.74268 6.01166C6.74268 6.84896 6.07999 7.51312 5.24268 7.51312C4.40536 7.51312 3.74268 6.84896 3.74268 6.01166C3.74268 5.17433 4.40536 4.51166 5.24268 4.51166ZM7.9834 7.22015C8.16711 7.59545 8.39996 7.94175 8.67627 8.24994H7.21582C7.53906 7.96441 7.80594 7.61853 7.9834 7.22015ZM2.25 9.74994H16.5V21.7499H2.25V9.74994ZM21 11.9999H21.75V20.2499H21C20.5758 20.2499 20.2592 19.9337 20.2529 19.5117V12.7382C20.2592 12.3161 20.5758 11.9999 21 11.9999ZM18 13.497H18.75V18.7514H18V13.497Z" fill="white"/>
<path d="M4.50117 11.2496C4.3022 11.2496 4.11139 11.3287 3.9707 11.4694C3.83001 11.6101 3.75098 11.8009 3.75098 11.9998C3.75098 12.1988 3.83001 12.3896 3.9707 12.5303C4.11139 12.671 4.3022 12.75 4.50117 12.75H6.00153C6.2005 12.75 6.39131 12.671 6.532 12.5303C6.67269 12.3896 6.75172 12.1988 6.75172 11.9998C6.75172 11.8009 6.67269 11.6101 6.532 11.4694C6.39131 11.3287 6.2005 11.2496 6.00153 11.2496H4.50117Z" fill="white"/>
</g>
<defs>
<clipPath id="clip0_1773_1031">
<rect width="24" height="24" fill="white"/>
</clipPath>
</defs>
</svg>
