<svg width="30" height="30" viewBox="0 0 30 30" fill="none" xmlns="http://www.w3.org/2000/svg">
<path fill-rule="evenodd" clip-rule="evenodd" d="M1.875 15C1.875 7.75157 7.75157 1.875 15 1.875C22.2484 1.875 28.125 7.75157 28.125 15C28.125 22.2484 22.2484 28.125 15 28.125C7.75157 28.125 1.875 22.2484 1.875 15ZM15 3.75C8.7871 3.75 3.75 8.7871 3.75 15C3.75 21.2129 8.7871 26.25 15 26.25C21.2129 26.25 26.25 21.2129 26.25 15C26.25 8.7871 21.2129 3.75 15 3.75Z" fill="white"/>
<path d="M26.1077 10.0863C25.1667 10.0922 25.2592 11.8283 24.0868 11.0092C23.6514 10.7057 23.3837 10.2644 22.837 10.1303C22.3594 10.0131 21.8702 10.1349 21.3985 10.2164C20.8624 10.309 20.2266 10.3506 19.82 10.7566C19.4268 11.1474 19.2188 11.6719 18.8005 12.065C17.9913 12.8267 17.6497 13.6582 18.1735 14.7351C18.6774 15.7705 19.7315 16.3324 20.8688 16.2586C21.9862 16.1842 23.1469 15.5361 23.1147 17.1598C23.103 17.734 23.2231 18.1324 23.3995 18.6662C23.563 19.1584 23.5518 19.6353 23.5893 20.1433C23.6585 21.0926 23.8331 22.1566 24.3042 22.9951L25.1831 21.7553C25.2915 21.6017 25.5182 21.3867 25.5721 21.2057C25.6676 20.8851 25.4796 20.3344 25.4579 19.9752C25.4362 19.616 25.4468 19.2521 25.3917 18.893C25.3143 18.3896 25.0167 17.918 24.9757 17.4205C24.9001 16.4941 25.0694 15.7547 24.3557 14.9801C23.6667 14.233 22.6565 14.0537 21.6915 14.2055C21.2051 14.2816 19.2475 14.5945 20.0333 13.483C20.1885 13.2644 20.4598 13.0851 20.6344 12.8771C20.7862 12.6961 20.918 12.3633 21.0962 12.2221C21.2743 12.0808 22.0923 11.9185 22.3266 11.9906C22.561 12.0627 22.8053 12.4008 23.0087 12.5508C23.3843 12.8337 23.8227 13.0219 24.2866 13.0992C25.087 13.2164 26.7604 12.7512 26.7475 11.7246C26.7452 11.2324 26.2882 10.5469 26.1077 10.0863Z" fill="white"/>
<path d="M16.843 18.5332C16.5307 17.2184 14.7442 16.7789 13.7809 16.0658C13.2272 15.6557 12.7344 15.0223 12.0072 14.9707C11.6721 14.9467 11.3914 15.0193 11.0592 14.9332C10.7545 14.8547 10.5154 14.6906 10.1908 14.7334C9.58439 14.8131 9.20178 15.4611 8.55021 15.3732C7.93205 15.29 7.29514 14.567 7.15451 13.9781C6.97404 13.2211 7.57287 12.9756 8.21447 12.9082C8.48224 12.8801 8.78283 12.8496 9.04006 12.9475C9.37873 13.0734 9.53869 13.4051 9.84279 13.5727C10.4129 13.885 10.5283 13.3857 10.441 12.8795C10.3104 12.1213 10.158 11.8119 10.8342 11.2904C11.3029 10.9307 11.7037 10.6705 11.6287 10.0242C11.5842 9.64454 11.3762 9.47286 11.5701 9.09493C11.7172 8.80723 12.1209 8.54766 12.384 8.37598C13.0631 7.93301 15.2932 7.96583 14.382 6.72598C14.1143 6.36212 13.6203 5.71172 13.1516 5.62266C12.5656 5.51192 12.3055 6.16583 11.8971 6.45411C11.4752 6.75235 10.6537 7.09102 10.2313 6.62989C9.66291 6.00938 10.608 5.80547 10.8172 5.37247C11.0264 4.93946 10.3326 4.1209 9.96115 3.91348L8.21447 5.87227C8.16429 6.20031 8.18176 6.53515 8.2658 6.85619C8.34984 7.17723 8.49867 7.47769 8.70314 7.73907C9.0506 8.18614 9.60373 8.32969 9.62892 8.94024C9.65353 9.52618 9.56213 9.82618 9.17892 10.2381C9.0131 10.4139 8.89592 10.6635 8.72717 10.8281C8.52033 11.0291 8.59709 10.9676 8.27424 11.0227C7.66721 11.1252 7.15041 11.2834 6.56389 11.4451C5.58654 11.7152 5.49631 10.1186 5.05099 9.49219L3.58615 10.6752C3.57033 10.8691 3.82639 11.226 3.89611 11.4369C4.29631 12.6422 5.10373 13.5744 5.62521 14.7275C6.17424 15.9486 7.64846 15.61 8.29943 16.6799C8.87717 17.6291 8.26018 18.8309 8.6926 19.8246C9.00666 20.5459 9.74728 20.7035 10.2582 21.2309C10.7803 21.7635 10.7692 22.4924 10.8488 23.1856C10.9387 24.0009 11.0846 24.809 11.2854 25.6043C11.3563 25.8791 11.4213 26.2424 11.6094 26.4691C11.7383 26.625 12.1807 26.7592 12.002 26.8107C12.2516 26.8518 12.6963 27.085 12.9043 26.9139C13.1785 26.6889 13.1053 25.9963 13.1528 25.6834C13.2951 24.7518 13.7615 23.8406 14.3908 23.1434C15.0125 22.4555 15.8645 21.9897 16.3895 21.2098C16.901 20.4492 17.0551 19.4232 16.843 18.5332ZM14.8865 20.0754C14.535 20.7029 13.7522 21.1231 13.2488 21.6217C13.1123 21.757 12.8217 22.2258 12.6506 22.1244C12.5281 22.0518 12.4865 21.4436 12.4414 21.3041C12.2087 20.6019 11.7643 19.9889 11.1694 19.5492C10.986 19.4104 10.5313 19.2299 10.4264 19.0395C10.3092 18.8326 10.4147 18.3445 10.4188 18.1195C10.4252 17.7914 10.2758 17.2459 10.3567 16.9477C10.4504 16.6037 10.2699 16.8111 10.5776 16.7432C10.7399 16.7068 11.4102 16.8246 11.6123 16.8668C11.9334 16.9336 12.1104 17.1334 12.3635 17.3356C13.0291 17.8693 13.7621 18.2824 14.508 18.6914C15.0858 19.0113 15.2557 19.4162 14.8865 20.0754Z" fill="white"/>
<path d="M10.8081 3.93105C11.0858 4.20234 11.3472 4.52343 11.7614 4.55039C12.1534 4.57675 12.5231 4.36464 12.8653 4.63125C13.245 4.92421 13.5187 5.29511 14.0226 5.38652C14.5101 5.475 15.0263 5.19023 15.147 4.6916C15.2642 4.2164 15.0116 3.69961 14.9964 3.22265C14.9964 3.15644 15.0321 2.8623 14.9864 2.8125C14.9524 2.775 14.6688 2.81718 14.6255 2.81835C14.3079 2.82773 13.9911 2.84961 13.6751 2.88398C12.523 3.00868 11.3948 3.29774 10.3247 3.74238C10.4671 3.84082 10.6458 3.88007 10.8081 3.93105Z" fill="white"/>
<path d="M20.8829 7.22285C21.3803 7.22285 21.8854 7.0002 21.7249 6.42481C21.5901 5.94258 21.3604 5.41934 20.8014 5.67949C20.4458 5.84473 19.9419 6.26543 19.9003 6.68262C19.8528 7.15606 20.5512 7.22285 20.8829 7.22285Z" fill="white"/>
<path d="M20.4857 9.74064C20.9937 10.0447 21.7472 9.90177 22.1304 9.46759C22.4298 9.12775 22.6062 8.53771 23.1447 8.53829C23.3817 8.5378 23.6095 8.63062 23.7787 8.79669C24.0013 9.02696 23.9574 9.24317 24.0048 9.53146C24.1109 10.1789 24.8052 9.56837 24.9863 9.31759C25.1035 9.15411 25.2623 8.91153 25.2089 8.69884C25.1597 8.50021 24.9277 8.28868 24.8246 8.10646C24.5234 7.57911 24.2755 6.96564 23.8244 6.53966C23.3902 6.1295 22.8564 6.17696 22.4445 6.60294C22.107 6.9545 21.715 7.23282 21.4841 7.66056C21.3212 7.96114 21.1378 8.1047 20.808 8.18263C20.6263 8.2254 20.4189 8.24122 20.2666 8.3631C19.8423 8.69708 20.0837 9.49923 20.4857 9.74064Z" fill="white"/>
</svg>
