<svg width="24" height="24" viewBox="0 0 24 24" fill="none" xmlns="http://www.w3.org/2000/svg">
<path d="M1.00098 5.98704C1.0299 5.40999 1.04801 4.83202 1.09052 4.25619C1.14374 3.53725 1.72558 2.95855 2.42447 2.91189C3.04449 2.87046 3.66784 2.86108 4.28496 2.79252C6.75173 2.51877 9.03059 1.6821 11.1228 0.309799C11.5457 0.0324701 11.9869 -0.0581415 12.465 0.108164C12.5926 0.152573 12.7154 0.220828 12.8296 0.295644C14.6938 1.52083 16.7174 2.3171 18.8983 2.6876C19.7224 2.82754 20.5534 2.89251 21.3888 2.90461C22.2733 2.91727 22.8485 3.51355 22.91 4.42608C22.9912 5.63486 22.9811 6.84172 22.8699 8.0465C22.4836 12.2288 21.1355 16.0188 18.499 19.2691C16.8856 21.2579 14.924 22.7843 12.6285 23.8514C12.1918 24.0545 11.7617 24.0424 11.3255 23.8388C9.24817 22.8689 7.44337 21.5141 5.91111 19.7758C3.91637 17.513 2.58301 14.8783 1.79257 11.9434C1.26803 9.99569 1.02223 8.00819 1.00098 5.98704ZM2.53728 4.42501C2.52139 4.71073 2.4991 4.99077 2.49143 5.27138C2.4528 6.66989 2.53543 8.06023 2.75674 9.44161C3.1103 11.6476 3.78109 13.7415 4.85028 15.6912C6.49713 18.6941 8.80247 20.9749 11.8541 22.4312C11.9496 22.4768 12.0253 22.4795 12.1225 22.4335C14.89 21.1174 17.0708 19.1101 18.6838 16.4579C20.8481 12.8987 21.648 8.98256 21.4695 4.82309C21.4638 4.68956 21.4475 4.55664 21.4358 4.41997C21.3835 4.41654 21.3437 4.41234 21.3039 4.41177C20.3827 4.39701 19.4667 4.31891 18.5585 4.15871C16.2455 3.75067 14.0948 2.90445 12.1132 1.60728C12.0264 1.55051 11.9652 1.54379 11.8719 1.60282C11.5059 1.83379 11.1391 2.0645 10.7609 2.273C8.57115 3.48166 6.23645 4.17927 3.75768 4.35931C3.35998 4.38823 2.96116 4.40269 2.53728 4.42501Z" fill="white"/>
<path d="M10.5349 13.9078C10.5889 13.8418 10.6216 13.7947 10.6608 13.7543C12.3724 11.9901 14.0855 10.227 15.7958 8.46125C15.9853 8.2656 16.1973 8.14756 16.4717 8.18854C16.7564 8.231 16.9544 8.3933 17.057 8.66872C17.1602 8.9462 17.1051 9.20045 16.9241 9.4273C16.8857 9.47541 16.8409 9.51833 16.7981 9.56247C14.9108 11.5069 13.0237 13.451 11.1363 15.3953C10.7221 15.822 10.3325 15.8211 9.91591 15.3926C8.98226 14.4324 8.04787 13.4728 7.1154 12.5111C6.81043 12.1966 6.78858 11.7495 7.05696 11.4438C7.34104 11.1205 7.81222 11.1067 8.12382 11.4221C8.57097 11.8747 9.01263 12.3328 9.45559 12.7898C9.80855 13.154 10.1601 13.5194 10.5349 13.9078Z" fill="white"/>
</svg>
