<svg width="38" height="38" viewBox="0 0 38 38" fill="none" xmlns="http://www.w3.org/2000/svg">
<path fill-rule="evenodd" clip-rule="evenodd" d="M3.56235 13.1104C3.60864 8.59494 7.19587 4.75 11.8065 4.75C14.6365 4.75 16.7182 6.15085 18.0467 7.46981C18.4166 7.83705 18.734 8.20338 18.9998 8.54115C19.2656 8.20338 19.583 7.83705 19.9529 7.46981C21.2813 6.15085 23.363 4.75 26.1931 4.75C30.8037 4.75 34.3909 8.59494 34.4372 13.1104L34.4372 13.1108C34.525 21.9177 27.4486 28.0105 20.3357 32.8387C19.9418 33.1068 19.4763 33.2501 18.9998 33.2501C18.5233 33.2501 18.0578 33.1068 17.6638 32.8387C10.5502 28.0105 3.47374 21.9177 3.56235 13.1107L3.56235 13.1104ZM20.0605 11.2215C19.8588 11.6221 19.4485 11.875 18.9998 11.875C18.5511 11.875 18.1408 11.6221 17.9391 11.2215C17.9389 11.221 17.9384 11.2201 17.9377 11.2187C17.9362 11.2159 17.9338 11.2113 17.9305 11.2049C17.9287 11.2016 17.9267 11.1977 17.9244 11.1934C17.911 11.1684 17.8888 11.1276 17.8577 11.0734C17.7955 10.9647 17.6984 10.8029 17.5664 10.6057C17.3012 10.2092 16.9026 9.68071 16.3733 9.15519C15.3097 8.09915 13.7948 7.125 11.8065 7.125C8.58566 7.125 5.97121 9.83197 5.93723 13.1346M20.0605 11.2215C20.0607 11.221 20.0612 11.2201 20.0619 11.2187C20.0641 11.2144 20.0686 11.2059 20.0752 11.1934C20.0886 11.1684 20.1108 11.1276 20.1418 11.0734C20.204 10.9647 20.3012 10.8029 20.4331 10.6057C20.6984 10.2092 21.097 9.68071 21.6262 9.15519C22.6899 8.09915 24.2048 7.125 26.1931 7.125C29.4139 7.125 32.0283 9.83191 32.0623 13.1345C32.1363 20.5558 26.1762 26.0039 19.0008 30.8744L18.9998 30.8751L18.9987 30.8744C11.8227 26.0039 5.86268 20.5559 5.93722 13.1348" fill="white"/>
<path fill-rule="evenodd" clip-rule="evenodd" d="M15.5396 10.6919C16.0247 10.7338 16.435 11.0675 16.5749 11.5338L19.277 20.5407L21.5004 16.0939C21.7015 15.6916 22.1127 15.4375 22.5625 15.4375C23.0123 15.4375 23.4235 15.6916 23.6246 16.0939L25.6714 20.1875H34.4375C35.0933 20.1875 35.625 20.7192 35.625 21.375C35.625 22.0308 35.0933 22.5625 34.4375 22.5625H24.9375C24.4877 22.5625 24.0765 22.3084 23.8754 21.9061L22.5625 19.2803L20.0621 24.2811C19.8444 24.7165 19.3829 24.975 18.8979 24.9331C18.4128 24.8912 18.0025 24.5575 17.8626 24.0912L15.1605 15.0843L12.9371 19.5311C12.736 19.9334 12.3248 20.1875 11.875 20.1875H3.5625C2.90666 20.1875 2.375 19.6558 2.375 19C2.375 18.3442 2.90666 17.8125 3.5625 17.8125H11.1411L14.3754 11.3439C14.5931 10.9085 15.0546 10.65 15.5396 10.6919Z" fill="white"/>
</svg>
