<svg width="24" height="24" viewBox="0 0 24 24" fill="none" xmlns="http://www.w3.org/2000/svg">
<path fill-rule="evenodd" clip-rule="evenodd" d="M6.02318 3.94928C6.50456 3.81466 7.00231 3.74759 7.50214 3.75C8.15225 3.75034 8.75345 3.91985 9.30898 4.07647C9.39979 4.10208 9.48939 4.12734 9.57778 4.15146C10.2322 4.33004 10.9708 4.5 12.0002 4.5C13.0295 4.5 13.7676 4.33005 14.4218 4.15148C14.51 4.1274 14.5994 4.10219 14.69 4.07664C15.2457 3.91993 15.8471 3.75033 16.4983 3.75C16.9836 3.74776 17.4668 3.81565 17.9327 3.95157L17.934 3.95195L17.9353 3.95233C19.2066 4.32814 20.1715 5.27213 20.9137 6.55796C21.6527 7.83839 22.2085 9.5197 22.647 11.5019C23.0968 13.5345 23.3475 15.3964 23.2146 16.8636C23.0829 18.3177 22.5381 19.6367 21.1526 20.1099L21.1522 20.11C20.3025 20.3997 19.4964 20.2153 18.8011 19.8111C18.1253 19.4182 17.5167 18.7996 16.9775 18.1277C16.4691 17.4944 15.9434 17.1079 15.2252 16.8637C14.4752 16.6087 13.4775 16.4958 12.0002 16.4958C10.5233 16.4958 9.50962 16.6086 8.74382 16.8648C8.00877 17.1108 7.47214 17.4992 6.96889 18.1273L6.96813 18.1282C6.43328 18.7935 5.83477 19.4166 5.16349 19.8116C4.46661 20.2216 3.66038 20.4001 2.79749 20.1014L2.79709 20.1013C1.49338 19.6491 0.958797 18.3051 0.804534 16.8749C0.645364 15.3991 0.845869 13.5268 1.29936 11.5001L1.29938 11.5001C1.74258 9.52032 2.29804 7.83958 3.03555 6.55937C3.77629 5.27355 4.73929 4.32821 6.01283 3.95225L6.01799 3.95073L6.02318 3.94928ZM6.43245 5.39238C5.6549 5.62363 4.95879 6.22583 4.3353 7.30813C3.70723 8.39838 3.19231 9.91074 2.76316 11.8277M6.43245 5.39238C6.77878 5.29605 7.13679 5.24813 7.49629 5.24999L7.49823 5.25H7.50017C7.92857 5.25 8.30974 5.3561 8.87598 5.51371C8.97251 5.54058 9.07443 5.56895 9.18287 5.59854C9.90262 5.79496 10.7847 6 12.0002 6C13.2157 6 14.0973 5.79495 14.8168 5.59853C14.9249 5.56903 15.0264 5.54075 15.1227 5.51396C15.6892 5.35624 16.0707 5.25 16.5002 5.25H16.502L16.5039 5.24999C16.8448 5.24829 17.1841 5.29585 17.5113 5.39118C18.2898 5.62174 18.9892 6.22433 19.6145 7.30778C20.2433 8.39724 20.7584 9.90906 21.1824 11.8259L21.1824 11.8259C21.6237 13.8204 21.8321 15.4982 21.7207 16.7282C21.6081 17.9713 21.2051 18.5069 20.6678 18.6904C20.3312 18.8051 19.9791 18.7609 19.555 18.5144C19.1114 18.2564 18.6392 17.8018 18.1473 17.1888C17.4818 16.3597 16.7271 15.79 15.708 15.4435C14.7207 15.1079 13.5242 14.9958 12.0002 14.9958C10.4756 14.9958 9.26697 15.108 8.26781 15.4424C7.23813 15.7869 6.46729 16.3546 5.79877 17.1887C5.30156 17.8072 4.83915 18.262 4.40286 18.5187C3.99209 18.7604 3.64403 18.8071 3.28816 18.6839C2.85107 18.5321 2.43478 18.0018 2.29588 16.714C2.16185 15.4713 2.32603 13.7812 2.76315 11.8278" fill="white"/>
<path d="M13.6875 11.4375C14.2053 11.4375 14.625 11.0178 14.625 10.5C14.625 9.98223 14.2053 9.5625 13.6875 9.5625C13.1697 9.5625 12.75 9.98223 12.75 10.5C12.75 11.0178 13.1697 11.4375 13.6875 11.4375Z" fill="white"/>
<path d="M15.75 13.5C15.5645 13.5 15.3831 13.445 15.2289 13.3418C15.0747 13.2387 14.9545 13.0922 14.8836 12.9207C14.8128 12.7493 14.7943 12.5607 14.8307 12.3787C14.8671 12.1968 14.9566 12.0298 15.0879 11.8988C15.2193 11.7677 15.3865 11.6786 15.5685 11.6427C15.7506 11.6068 15.9391 11.6257 16.1104 11.697C16.2817 11.7684 16.4279 11.8889 16.5306 12.0434C16.6334 12.1978 16.688 12.3793 16.6875 12.5648C16.6869 12.8131 16.5878 13.0509 16.4121 13.2262C16.2363 13.4016 15.9982 13.5 15.75 13.5Z" fill="white"/>
<path d="M15.75 9.375C16.2678 9.375 16.6875 8.95527 16.6875 8.4375C16.6875 7.91973 16.2678 7.5 15.75 7.5C15.2322 7.5 14.8125 7.91973 14.8125 8.4375C14.8125 8.95527 15.2322 9.375 15.75 9.375Z" fill="white"/>
<path d="M17.8125 11.4375C18.3303 11.4375 18.75 11.0178 18.75 10.5C18.75 9.98223 18.3303 9.5625 17.8125 9.5625C17.2947 9.5625 16.875 9.98223 16.875 10.5C16.875 11.0178 17.2947 11.4375 17.8125 11.4375Z" fill="white"/>
<path fill-rule="evenodd" clip-rule="evenodd" d="M7.5 7.5C7.91421 7.5 8.25 7.83579 8.25 8.25V12.75C8.25 13.1642 7.91421 13.5 7.5 13.5C7.08579 13.5 6.75 13.1642 6.75 12.75V8.25C6.75 7.83579 7.08579 7.5 7.5 7.5Z" fill="white"/>
<path fill-rule="evenodd" clip-rule="evenodd" d="M4.5 10.5C4.5 10.0858 4.83579 9.75 5.25 9.75H9.75C10.1642 9.75 10.5 10.0858 10.5 10.5C10.5 10.9142 10.1642 11.25 9.75 11.25H5.25C4.83579 11.25 4.5 10.9142 4.5 10.5Z" fill="white"/>
</svg>
