<svg width="24" height="24" viewBox="0 0 24 24" fill="none" xmlns="http://www.w3.org/2000/svg">
<path d="M5.08105 22.3125C4.1998 22.3125 3.4873 21.6 3.4873 20.7188V12.975H4.63105V20.7C4.63105 20.9438 4.8373 21.15 5.08105 21.15H18.3936C18.6373 21.15 18.8436 20.9438 18.8436 20.7V13.2375H19.9873V20.7188C19.9873 21.6 19.2748 22.3125 18.3936 22.3125H5.08105Z" fill="white"/>
<path d="M3.54395 13.0312V20.7C3.54395 21.5438 4.2377 22.2375 5.08145 22.2375H18.3939C19.2377 22.2375 19.9314 21.5625 19.9314 20.7V13.2938H18.9002V20.7188C18.9002 21 18.6752 21.225 18.3939 21.225H5.08145C4.8002 21.225 4.5752 21 4.5752 20.7188V13.0312H3.54395Z" fill="white"/>
<path d="M11.6812 7.08749H12.8249V21.7875H11.6812V7.08749Z" fill="white"/>
<path d="M12.75 21.7313V7.14375H11.7188V21.7313H12.75Z" fill="white"/>
<path d="M4.0501 13.35C2.60635 13.35 1.44385 12.1688 1.44385 10.7438V6.58125H19.4063C20.8501 6.58125 22.0126 7.7625 22.0126 9.1875V13.3313H4.0501V13.35ZM2.5876 10.725C2.5876 11.55 3.24385 12.2063 4.06885 12.2063H20.9063V9.20625C20.9063 8.38125 20.2501 7.725 19.4251 7.725H2.5876V10.725Z" fill="white"/>
<path d="M2.00625 7.66875H19.4062C20.25 7.66875 20.9437 8.3625 20.9437 9.20625V12.7875L21.45 12.2812H4.05C3.20625 12.2812 2.5125 11.5875 2.5125 10.7437V7.14375L2.00625 7.66875ZM2.00625 6.6375H1.5V10.725C1.5 12.1312 2.64375 13.275 4.05 13.275H21.9562V9.20625C21.9562 7.8 20.8125 6.65625 19.4062 6.65625H2.00625V6.6375Z" fill="white"/>
<path d="M10.1436 7.725V5.04375H14.3436V7.70625H10.1436V7.725ZM13.2186 6.58125V6.1875H11.2686V6.58125H13.2186Z" fill="white"/>
<path d="M10.7064 6.13126H13.7814L13.2752 5.62501V7.16251L13.7814 6.65626H10.7064L11.2127 7.16251V5.62501L10.7064 6.13126ZM10.7064 5.10001H10.2002V7.66876H14.2877V5.11876H10.7064V5.10001Z" fill="white"/>
<path d="M6.1126 7.51874C6.05635 7.44374 5.9626 7.33124 5.83135 7.16249C5.60635 6.86249 5.4001 6.56249 5.23135 6.28124C5.00635 5.94374 4.8376 5.60624 4.6876 5.30624C4.2001 4.27499 4.1626 3.52499 4.5751 2.98124C5.5126 1.72499 7.21885 0.712494 8.3626 0.712494C8.9251 0.712494 9.54385 1.18124 10.5376 2.38124C10.7251 2.60624 10.9126 2.84999 11.1188 3.11249C11.4376 3.56249 11.8126 4.06874 12.1876 4.61249C12.3188 4.79999 12.4313 4.96874 12.5251 5.11874C12.5813 5.21249 12.6751 5.36249 12.6751 5.36249L11.7188 5.98124C11.7188 5.98124 11.6251 5.83124 11.5688 5.75624C11.4938 5.60624 11.3813 5.43749 11.2501 5.24999C10.8751 4.72499 10.5188 4.21874 10.1813 3.78749C9.99385 3.54374 9.80635 3.29999 9.6376 3.09374C8.94385 2.24999 8.4376 1.83749 8.34385 1.83749C7.5751 1.83749 6.16885 2.71874 5.4751 3.65624C5.38135 3.78749 5.41885 4.18124 5.71885 4.81874C5.8501 5.08124 6.0001 5.36249 6.1876 5.66249C6.35635 5.92499 6.54385 6.20624 6.7501 6.46874C6.8626 6.61874 6.95635 6.73124 6.99385 6.78749L7.03135 6.82499L6.1501 7.53749L6.1126 7.51874Z" fill="white"/>
<path d="M11.8501 5.34375L12.7126 5.90625C12.7313 5.86875 12.7688 5.8125 12.8251 5.71875C12.9188 5.56875 13.0313 5.4 13.1626 5.23125C13.5001 4.725 13.8751 4.21875 14.2313 3.75C14.4188 3.50625 14.6063 3.2625 14.7938 3.05625C15.4501 2.26875 16.0126 1.78125 16.1438 1.78125C16.9501 1.78125 18.3376 2.6625 19.0688 3.61875C19.1813 3.76875 19.1251 4.21875 18.8251 4.8375C18.6938 5.1 18.5438 5.4 18.3563 5.7C18.1876 5.98125 17.9813 6.2625 17.7938 6.50625C17.6813 6.65625 17.5876 6.76875 17.5501 6.825L18.3376 7.48125C18.3938 7.40625 18.4876 7.29375 18.6188 7.125C18.8251 6.84375 19.0313 6.54375 19.2188 6.24375C19.4251 5.90625 19.6126 5.5875 19.7626 5.26875C20.1938 4.33125 20.3063 3.5625 19.8938 3C18.9563 1.81875 17.2688 0.75 16.1063 0.75C15.5251 0.75 14.8688 1.33125 13.9688 2.4C13.7813 2.625 13.5938 2.86875 13.3876 3.13125C13.0126 3.61875 12.6563 4.125 12.3001 4.65C12.1688 4.8375 12.0563 5.00625 11.9626 5.15625C11.9063 5.23125 11.8688 5.30625 11.8501 5.34375Z" fill="white"/>
</svg>
