<svg width="38" height="38" viewBox="0 0 38 38" fill="none" xmlns="http://www.w3.org/2000/svg">
<path fill-rule="evenodd" clip-rule="evenodd" d="M21.4667 8.76257C20.0883 7.43992 17.912 7.43992 16.5336 8.76257L9.20843 15.7915C9.02896 15.9637 8.90823 16.1881 8.86337 16.4327C7.98599 21.2173 7.92123 26.1156 8.6718 30.9217L8.84996 32.0625H13.5627V22.2279C13.5627 21.5721 14.0943 21.0404 14.7502 21.0404H23.2502C23.906 21.0404 24.4377 21.5721 24.4377 22.2279V32.0625H29.1504L29.3286 30.9217C30.0791 26.1156 30.0144 21.2173 29.137 16.4327C29.0921 16.1881 28.9714 15.9637 28.7919 15.7915L21.4667 8.76257ZM14.8893 7.0489C17.1866 4.84448 20.8138 4.84448 23.1111 7.0489L30.4363 14.0778C30.9755 14.5953 31.3382 15.2693 31.473 16.0044C32.3985 21.0514 32.4669 26.2184 31.6751 31.2882L31.3889 33.1208C31.2705 33.8788 30.6178 34.4375 29.8507 34.4375H23.2502C22.5943 34.4375 22.0627 33.9058 22.0627 33.25V23.4154H15.9377V33.25C15.9377 33.9058 15.406 34.4375 14.7502 34.4375H8.1497C7.38259 34.4375 6.72981 33.8788 6.61145 33.1208L6.32524 31.2882C5.5335 26.2184 5.60181 21.0514 6.52732 16.0044C6.66211 15.2693 7.02483 14.5953 7.56406 14.0778L14.8893 7.0489Z" fill="white"/>
</svg>
