<svg width="25" height="26" viewBox="0 0 25 26" fill="none" xmlns="http://www.w3.org/2000/svg">
<path d="M8.12451 21.0301C8.12451 21.5056 8.51083 21.8926 8.98586 21.8926H17.2931C17.7678 21.8926 18.1544 21.5056 18.1544 21.0301V15.3592C18.1544 14.8837 17.7681 14.4973 17.2931 14.4973H8.98586C8.51083 14.4973 8.12451 14.8837 8.12451 15.3592V21.0301ZM17.2622 15.3592V21.0001L9.01613 21.0304L8.98556 15.3901L17.2622 15.3592Z" fill="white"/>
<path d="M20.1411 19.0198C20.1411 19.7497 20.7342 20.3434 21.4634 20.3434C22.1926 20.3434 22.7857 19.75 22.7857 19.0198C22.7857 18.2896 22.1926 17.6962 21.4634 17.6962C20.7342 17.6962 20.1411 18.2896 20.1411 19.0198ZM21.4631 18.589C21.7005 18.589 21.8935 18.7819 21.8935 19.0198C21.8935 19.2577 21.7005 19.4506 21.4631 19.4506C21.226 19.4506 21.0327 19.2577 21.0327 19.0198C21.0327 18.7819 21.226 18.589 21.4631 18.589Z" fill="white"/>
<path d="M20.7184 16.6687H20.8937C21.1401 16.6687 21.3397 16.4689 21.3397 16.2223C21.3397 15.976 21.1401 15.7759 20.8937 15.7759H20.7184C20.4721 15.7759 20.2725 15.9757 20.2725 16.2223C20.2725 16.4689 20.4721 16.6687 20.7184 16.6687Z" fill="white"/>
<path d="M22.0329 16.6687H22.2082C22.4543 16.6687 22.6542 16.4689 22.6542 16.2223C22.6542 15.976 22.4546 15.7759 22.2082 15.7759H22.0329C21.7868 15.7759 21.5869 15.9757 21.5869 16.2223C21.5869 16.4689 21.7865 16.6687 22.0329 16.6687Z" fill="white"/>
<path d="M3.95155 12.4501C4.1979 12.4501 4.39751 12.2503 4.39751 12.0037C4.39751 11.7574 4.1979 11.5573 3.95155 11.5573H3.45014C3.13515 11.5573 2.87891 11.8135 2.87891 12.1291V16.2709C2.87891 16.5865 3.13515 16.8427 3.45014 16.8427H3.95155C4.1979 16.8427 4.39751 16.6429 4.39751 16.3963C4.39751 16.15 4.1979 15.9499 3.95155 15.9499H3.77053V12.4501H3.95155Z" fill="white"/>
<path d="M3.45014 8.05781H3.95155C4.1979 8.05781 4.39751 7.85801 4.39751 7.61141C4.39751 7.36511 4.1979 7.16501 3.95155 7.16501H3.77053V5.54801H3.95155C4.1979 5.54801 4.39751 5.34821 4.39751 5.10161C4.39751 4.85501 4.1979 4.65521 3.95155 4.65521H3.45014C3.13515 4.65521 2.87891 4.91141 2.87891 5.22641V7.48571C2.87891 7.80161 3.13515 8.05781 3.45014 8.05781Z" fill="white"/>
<path d="M1.0003 24.0334C1.0003 24.5653 1.43217 24.9976 1.96355 24.9976H9.97854C10.5096 24.9976 10.9418 24.5653 10.9418 24.0334V23.6848H20.7041L21.0406 24.6949C21.1009 24.8767 21.2714 25 21.4632 25H22.7777C23.0241 25 23.2237 24.8002 23.2237 24.5536V23.4373C23.7452 23.131 24.1 22.57 24.1 21.9223V14.467C24.1 13.4959 23.3103 12.7054 22.3395 12.7054H10.9415V1.9642C10.9415 1.4323 10.5096 1 9.97824 1H1.96325C1.43217 1 1 1.4323 1 1.9642L1.0003 24.0334ZM18.8267 13.5982V22.792H8.31998C7.84105 22.792 7.45143 22.402 7.45143 21.9226V14.467C7.45143 13.9882 7.84105 13.5982 8.31998 13.5982H18.8267ZM8.32747 23.6848H9.01529L8.87533 24.1051H8.32747V23.6848ZM10.0496 24.0334C10.0496 24.073 10.0175 24.1048 9.97824 24.1048H9.8155L9.95546 23.6845H10.0496V24.0334ZM21.7848 24.1072L21.6442 23.6845H22.332V24.1072H21.7848ZM23.2081 14.467V21.9223C23.2081 22.4017 22.8185 22.7917 22.3395 22.7917H19.7186V13.5982H22.3395C22.8185 13.5982 23.2081 13.9882 23.2081 14.467ZM8.31998 12.7054C7.34923 12.7054 6.55951 13.4959 6.55951 14.467V21.9223C6.55951 22.57 6.91436 23.131 7.43585 23.4373V24.1048H1.96325C1.92399 24.1048 1.89192 24.0727 1.89192 24.0334V9.9403H10.0496V12.7051L8.31998 12.7054ZM1.96325 1.8928H9.97824C10.0169 1.8928 10.0496 1.9252 10.0496 1.9642V9.0475H1.89192V1.9642C1.89192 1.9252 1.92459 1.8928 1.96325 1.8928Z" fill="white" stroke="white" stroke-width="0.5"/>
</svg>
