<svg width="24" height="24" viewBox="0 0 24 24" fill="none" xmlns="http://www.w3.org/2000/svg">
<g clip-path="url(#clip0_1773_1003)">
<path d="M19.1455 11.2004H11.8285C12.0689 10.2875 12.9277 7.6439 15.0712 6.34108C15.2724 6.21854 15.3367 5.95613 15.2141 5.75488C15.0916 5.55411 14.8295 5.4894 14.6279 5.61195C11.9925 7.21377 11.12 10.4466 10.9481 11.2004H4.21283C3.97707 11.2004 3.78613 11.3913 3.78613 11.6271V14.6137C3.78613 14.8494 3.97695 15.0404 4.21283 15.0404H5.10246L5.8661 23.6112C5.88562 23.8312 6.0703 24 6.29108 24H17.0673C17.2881 24 17.4727 23.8313 17.4923 23.6112L18.2559 15.0404H19.1455C19.3813 15.0404 19.5722 14.8496 19.5722 14.6137V11.627C19.5721 11.3911 19.3814 11.2004 19.1455 11.2004ZM16.6769 23.1466H6.68144L5.95893 15.0403H17.3994L16.6769 23.1466ZM18.7188 14.187H17.8656H5.49281H4.63954V12.0537H18.719L18.7188 14.187Z" fill="white" stroke="white" stroke-width="0.5"/>
<path d="M10.0073 7.92215C10.2702 8.00467 10.5235 8.04556 10.7615 8.04556C11.1873 8.04556 11.5636 7.91478 11.8585 7.65852C12.3185 7.25858 12.5027 6.62068 12.3772 5.86232C12.2638 5.17862 11.9059 4.462 11.3689 3.84412C10.2348 2.53921 7.99818 2.71664 7.9024 2.72585C7.71821 2.74169 7.56534 2.87504 7.52371 3.05506C7.50247 3.14801 7.01449 5.33837 8.14909 6.64328C8.68618 7.26055 9.34618 7.71512 10.0073 7.92215ZM8.30208 3.56734C8.88203 3.57238 10.092 3.67528 10.7249 4.40392C11.1537 4.89681 11.449 5.47884 11.5353 6.00132C11.579 6.26471 11.6062 6.74667 11.2987 7.01423C10.9912 7.28167 10.5175 7.18712 10.2625 7.10792C9.75704 6.94964 9.22167 6.57586 8.79337 6.08298C8.15989 5.35482 8.22571 4.14275 8.30208 3.56734Z" fill="white" stroke="white" stroke-width="0.5"/>
<path d="M18.2935 3.83982C17.7052 3.83982 17.2269 3.36154 17.2269 2.77325C17.2269 2.18495 17.7052 1.70668 18.2935 1.70668C18.8818 1.70668 19.3601 2.18495 19.3601 2.77325C19.3601 3.00901 19.5509 3.19995 19.7868 3.19995C20.0227 3.19995 20.2135 3.00913 20.2135 2.77325C20.2135 1.7876 19.4642 0.982579 18.5069 0.874891V0.426701C18.5069 0.190941 18.3161 0 18.0802 0C17.8445 0 17.6535 0.190818 17.6535 0.426701V0.971282C16.9103 1.23627 16.3735 1.93999 16.3735 2.77325C16.3735 3.83196 17.2348 4.69322 18.2935 4.69322C18.8818 4.69322 19.3601 5.17149 19.3601 5.75979C19.3601 6.34808 18.8818 6.82636 18.2935 6.82636C17.7052 6.82636 17.2269 6.34808 17.2269 5.75979C17.2269 5.52403 17.0361 5.33309 16.8002 5.33309C16.5644 5.33309 16.3735 5.52391 16.3735 5.75979C16.3735 6.59293 16.9101 7.29677 17.6535 7.56176V8.28304C17.6535 8.5188 17.8443 8.70974 18.0802 8.70974C18.316 8.70974 18.5069 8.51892 18.5069 8.28304V7.65815C19.4642 7.55046 20.2135 6.74544 20.2135 5.75979C20.2134 4.70108 19.3522 3.83982 18.2935 3.83982Z" fill="white" stroke="white" stroke-width="0.5"/>
</g>
<defs>
<clipPath id="clip0_1773_1003">
<rect width="24" height="24" fill="white"/>
</clipPath>
</defs>
</svg>
