<svg width="24" height="24" viewBox="0 0 24 24" fill="none" xmlns="http://www.w3.org/2000/svg">
<path d="M19.1998 13.6C19.1998 17.5765 15.9763 20.8 11.9998 20.8C8.02332 20.8 4.7998 17.5765 4.7998 13.6C4.7998 10.6427 6.58604 8.10737 9.13564 6.99921L9.4174 7.21841L10.6556 8.18145C8.21836 8.78753 6.3998 10.9778 6.3998 13.6C6.3998 16.6878 8.91196 19.2 11.9998 19.2C15.0876 19.2 17.5998 16.6878 17.5998 13.6C17.5998 10.9778 15.7812 8.78753 13.344 8.18145L14.864 6.99937C17.4136 8.10753 19.1998 10.6427 19.1998 13.6ZM11.9998 7.20001L15.9998 4.08881L14.3998 1.60001H9.5998L7.9998 4.08881L10.3998 5.95553L11.9998 7.20001Z" fill="white"/>
</svg>
