<svg width="30" height="30" viewBox="0 0 30 30" fill="none" xmlns="http://www.w3.org/2000/svg">
<path fill-rule="evenodd" clip-rule="evenodd" d="M0.9375 6.5625C0.9375 5.52697 1.77697 4.6875 2.8125 4.6875H4.6875C5.72303 4.6875 6.5625 5.52697 6.5625 6.5625V26.25C6.5625 27.2855 5.72303 28.125 4.6875 28.125H2.8125C1.77697 28.125 0.9375 27.2855 0.9375 26.25V6.5625ZM4.6875 6.5625H2.8125V26.25H4.6875V6.5625Z" fill="white"/>
<path fill-rule="evenodd" clip-rule="evenodd" d="M5.625 13.125C5.625 12.6072 6.04473 12.1875 6.5625 12.1875H14.0625C14.5803 12.1875 15 12.6072 15 13.125C15 13.6428 14.5803 14.0625 14.0625 14.0625H6.5625C6.04473 14.0625 5.625 13.6428 5.625 13.125Z" fill="white"/>
<path fill-rule="evenodd" clip-rule="evenodd" d="M5.625 23.4375C5.625 22.9197 6.04473 22.5 6.5625 22.5H14.0625C14.5803 22.5 15 22.9197 15 23.4375C15 23.9553 14.5803 24.375 14.0625 24.375H6.5625C6.04473 24.375 5.625 23.9553 5.625 23.4375Z" fill="white"/>
<path fill-rule="evenodd" clip-rule="evenodd" d="M5.625 10.3125C5.625 9.27697 6.46447 8.4375 7.5 8.4375H13.125C14.1605 8.4375 15 9.27697 15 10.3125V26.25C15 27.2855 14.1605 28.125 13.125 28.125H7.5C6.46447 28.125 5.625 27.2855 5.625 26.25V10.3125ZM13.125 10.3125H7.5V26.25H13.125V10.3125Z" fill="white"/>
<path fill-rule="evenodd" clip-rule="evenodd" d="M14.0625 3.75C14.0625 2.71447 14.902 1.875 15.9375 1.875H19.6875C20.723 1.875 21.5625 2.71447 21.5625 3.75V26.25C21.5625 27.2855 20.723 28.125 19.6875 28.125H15.9375C14.902 28.125 14.0625 27.2855 14.0625 26.25V3.75ZM19.6875 3.75H15.9375V26.25H19.6875V3.75Z" fill="white"/>
<path fill-rule="evenodd" clip-rule="evenodd" d="M24.6556 4.69909C25.8557 4.57284 26.8756 5.47986 27.006 6.6329L27.0065 6.6372L29.0496 25.4774C29.1751 26.6349 28.3662 27.738 27.1651 27.8644L24.7979 28.1134L24.7971 28.1135C23.6005 28.2383 22.5764 27.3351 22.4501 26.179L20.4039 7.33503C20.2784 6.17759 21.0874 5.07448 22.2884 4.94811L24.6556 4.69909C24.6557 4.69909 24.6556 4.69909 24.6556 4.69909ZM25.1427 6.8421C25.119 6.63923 24.9547 6.55298 24.8518 6.5638L22.4846 6.81282C22.4846 6.81282 22.4846 6.81282 22.4846 6.81282C22.3826 6.82357 22.2471 6.93915 22.268 7.13278C22.268 7.13283 22.268 7.13289 22.268 7.13294L24.314 25.9753C24.3353 26.17 24.4955 26.2594 24.602 26.2487C24.6022 26.2486 24.6024 26.2486 24.6026 26.2486L26.9689 25.9997C26.9689 25.9997 26.9689 25.9997 26.9689 25.9997C27.071 25.9889 27.2065 25.8733 27.1856 25.6796C27.1856 25.6796 27.1856 25.6796 27.1856 25.6796L25.1429 6.84366C25.1428 6.84314 25.1428 6.84262 25.1427 6.8421Z" fill="white"/>
</svg>
