<svg width="20" height="26" viewBox="0 0 20 26" fill="none" xmlns="http://www.w3.org/2000/svg">
<path d="M4.82431 15.5452L5.96564 13.014H5.34635C5.20305 13.014 5.09045 12.8992 5.09045 12.7531V11.8241H4.55306V12.7531C4.55306 12.8992 4.44046 13.014 4.29716 13.014H3.67787L4.82431 15.5452ZM5.82233 14.564L5.04951 16.2706C4.95738 16.469 4.67589 16.4794 4.58377 16.2706L3.05347 12.8783C2.95111 12.6748 3.09953 12.4869 3.27867 12.4869H4.04125V11.5579C4.04125 11.4118 4.15385 11.297 4.29716 11.297H5.34635C5.48454 11.297 5.60226 11.4118 5.60226 11.5579V12.4869H6.36484C6.54397 12.4869 6.67704 12.68 6.59515 12.8574L5.82233 14.564ZM5.20817 7.41408C5.12116 7.5289 4.9625 7.54456 4.8499 7.45583C4.73731 7.36711 4.72195 7.20011 4.80896 7.09051L7.91049 3.11367C7.9975 2.99886 8.15616 2.9832 8.26875 3.07192C8.38135 3.16064 8.3967 3.32243 8.3097 3.43725L5.20817 7.41408ZM7.52152 6.02584C7.41404 6.17719 7.36286 6.31289 7.38333 6.50077C7.44475 7.0331 8.11521 7.28361 8.49395 6.8139C8.69355 6.56339 8.64749 6.14066 8.3967 5.94234C8.11009 5.71793 7.7416 5.75968 7.52152 6.02584ZM7.11208 5.71271C7.73648 4.90899 9.00575 5.28475 9.12346 6.30245C9.23606 7.32536 8.06915 7.97251 7.29633 7.3358C6.79988 6.9235 6.72822 6.19285 7.11208 5.71271ZM4.23574 3.37984C4.86014 2.57612 6.12941 2.95189 6.24713 3.96436C6.35972 4.98205 5.20817 5.63964 4.41999 4.99771C3.92866 4.60629 3.84677 3.88086 4.23574 3.37984ZM5.05462 3.46856C4.50699 3.53119 4.30739 4.24618 4.73731 4.59063C5.16722 4.9403 5.80186 4.5802 5.74044 4.02177C5.6995 3.67732 5.39242 3.43203 5.05462 3.46856ZM6.55933 1C8.78056 1 10.6026 2.76922 10.7356 5.00815C12.9825 4.13137 15.521 4.69501 17.2151 6.41726C19.595 8.84407 19.595 12.7739 17.2151 15.2007C14.8352 17.6276 10.9813 17.6276 8.60143 15.2007C7.15814 13.729 6.51327 11.5997 6.95342 9.50688C4.49676 9.74173 2.38301 7.76897 2.38301 5.25866C2.38301 2.91013 4.25109 1 6.55933 1ZM10.7305 5.57179C10.5975 7.45061 9.27189 9.00586 7.49593 9.41816C6.61563 12.9879 9.25142 16.5003 12.9057 16.5003C15.9868 16.5003 18.4844 13.9534 18.4844 10.8116C18.4844 7.17401 15.1883 4.48625 11.7183 5.25344C11.3754 5.33172 11.0478 5.4361 10.7305 5.57179ZM9.15417 2.61787C7.72112 1.15657 5.39753 1.15657 3.96448 2.61787C2.53143 4.07918 2.53143 6.44858 3.96448 7.90988C5.39753 9.37119 7.72112 9.37119 9.15417 7.90988C10.5872 6.44858 10.5872 4.07918 9.15417 2.61787ZM10.4746 12.299C10.4337 11.9598 10.9404 11.8919 10.9813 12.2364C11.012 12.4973 11.227 12.7426 11.5494 12.9253C12.3274 13.3637 13.5659 13.3585 14.3234 12.894C14.6407 12.6957 14.8403 12.4399 14.8403 12.1633C14.8403 11.3648 13.8577 11.2187 12.875 11.0726C11.6722 10.8951 10.4695 10.7229 10.4695 9.47035C10.4695 9.00064 10.7612 8.58313 11.2321 8.29608C11.6057 8.06645 12.097 7.90988 12.6447 7.87335V7.23142C12.6447 7.08007 12.7573 6.97047 12.9262 6.97047C13.0746 6.97047 13.1821 7.09573 13.1821 7.23664L13.1616 7.87335C13.7143 7.90988 14.2159 8.06645 14.5946 8.29608C15.0655 8.58835 15.3572 9.00064 15.3572 9.47035C15.3572 9.8148 14.8454 9.8148 14.8454 9.47035C14.8454 9.19896 14.6458 8.93801 14.3285 8.73969C13.5557 8.26477 12.2711 8.26477 11.4982 8.73969C11.1758 8.93801 10.9813 9.19374 10.9813 9.47035C10.9813 10.2688 11.964 10.415 12.9466 10.5611C14.1494 10.7386 15.3572 10.9108 15.3572 12.1633C15.3572 12.633 15.0655 13.0505 14.5946 13.3376C14.221 13.5672 13.7246 13.7238 13.177 13.7603L13.1565 14.4075C13.1565 14.7519 12.6447 14.7519 12.6447 14.4075V13.7603C12.1329 13.7238 11.6671 13.5881 11.3037 13.3793C10.8329 13.1132 10.5258 12.7322 10.4746 12.299ZM1.56924 18.9949L2.71056 18.3165C3.13536 18.0659 3.66252 18.1234 4.0259 18.4313L7.22467 16.589C7.63923 16.3541 8.09986 16.328 8.52977 16.5211L11.4317 17.8311C12.0766 18.1234 12.7419 18.6296 12.8238 19.2976C12.8392 19.4438 12.8289 19.5951 12.7829 19.736L16.6828 18.2121C18.7454 17.4084 19.728 19.4437 17.6552 20.5449L11.6108 23.7598C11.2935 23.932 10.9557 23.9738 10.6026 23.8903L6.59515 22.9352C6.68728 23.4154 6.47232 23.9112 6.04752 24.1669L4.92156 24.8349C4.38928 25.1742 3.62669 24.9706 3.32985 24.407L1.14956 20.5867C0.832244 20.0283 1.04208 19.2924 1.56924 18.9949ZM4.3381 18.854L6.32902 22.3455C6.33925 22.3455 6.34437 22.3507 6.35461 22.3507L10.7152 23.3893C10.9506 23.4467 11.1553 23.4206 11.3703 23.3058L17.4198 20.0909C18.9143 19.2924 18.3257 18.1338 16.8619 18.7027L11.9282 20.6285C11.8719 20.6493 11.8104 20.6545 11.749 20.6285L8.14592 19.2715C7.8286 19.1515 8.00773 18.6661 8.31993 18.7809L11.8156 20.0961C12.8596 19.4594 12.0715 18.6922 11.2219 18.306L8.31993 16.9961C8.03332 16.8656 7.74159 16.8812 7.46522 17.0378L4.3381 18.854ZM2.96647 18.7705L1.8405 19.4385C1.51294 19.6421 1.4157 20.0074 1.60507 20.3466L3.78535 24.1669C3.95937 24.4748 4.35345 24.5792 4.65542 24.4017L5.78139 23.7337C6.10894 23.5302 6.20107 23.1649 6.01682 22.8256L3.83653 19.0054C3.6574 18.6974 3.26843 18.5878 2.96647 18.7705Z" fill="white" stroke="white" stroke-width="0.5"/>
</svg>
