<svg width="24" height="24" viewBox="0 0 24 24" fill="none" xmlns="http://www.w3.org/2000/svg">
<path fill-rule="evenodd" clip-rule="evenodd" d="M17.2901 0.301262C17.0855 0.108367 16.808 0 16.5187 0C16.2294 0 15.9519 0.108367 15.7473 0.301262L2.37655 12.908C2.2395 13.0372 2.14143 13.1985 2.09245 13.3753L0.6379 18.6257C0.540024 18.979 0.648153 19.3548 0.922008 19.613C1.19586 19.8712 1.59438 19.9732 1.9691 19.8809L7.53772 18.5094C7.72525 18.4633 7.89635 18.3708 8.03341 18.2416L21.4042 5.63487C21.8302 5.23318 21.8302 4.58193 21.4042 4.18025L17.2901 0.301262ZM4.12863 14.1652L16.5187 2.48319L19.09 4.90756L6.69993 16.5896L3.21954 17.4467L4.12863 14.1652Z" fill="white"/>
<path d="M1.09091 21.9429C0.488417 21.9429 0 22.4034 0 22.9714C0 23.5395 0.488417 24 1.09091 24H22.9091C23.5116 24 24 23.5395 24 22.9714C24 22.4034 23.5116 21.9429 22.9091 21.9429H1.09091Z" fill="white"/>
</svg>
