<svg width="39" height="39" viewBox="0 0 39 39" fill="none" xmlns="http://www.w3.org/2000/svg">
<path d="M14.2298 24.7722C13.3618 24.8783 12.7442 25.668 12.8504 26.536C12.9565 27.404 13.7462 28.0216 14.6142 27.9154C15.4822 27.8093 16.0998 27.0196 15.9936 26.1516C15.8875 25.2836 15.0978 24.666 14.2298 24.7722Z" fill="white"/>
<path d="M8.93834 20.6339C8.83219 19.766 9.44978 18.9763 10.3178 18.8701C11.1857 18.764 11.9754 19.3815 12.0816 20.2495C12.1877 21.1175 11.5702 21.9072 10.7022 22.0134C9.83419 22.1195 9.04449 21.5019 8.93834 20.6339Z" fill="white"/>
<path d="M12.6922 12.1992C11.8242 12.3054 11.2066 13.0951 11.3128 13.963C11.4189 14.831 12.2086 15.4486 13.0766 15.3425C13.9446 15.2363 14.5622 14.4466 14.456 13.5786C14.3499 12.7107 13.5602 12.0931 12.6922 12.1992Z" fill="white"/>
<path d="M25.0079 15.0797C24.9018 14.2117 25.5193 13.422 26.3873 13.3158C27.2553 13.2097 28.045 13.8273 28.1512 14.6953C28.2573 15.5632 27.6397 16.3529 26.7717 16.4591C25.9038 16.5652 25.1141 15.9476 25.0079 15.0797Z" fill="white"/>
<path d="M19.1422 17.6091C18.2742 17.7152 17.6566 18.5049 17.7627 19.3729C17.8689 20.2409 18.6586 20.8585 19.5266 20.7523C20.3946 20.6462 21.0121 19.8565 20.906 18.9885C20.7998 18.1205 20.0101 17.5029 19.1422 17.6091Z" fill="white"/>
<path d="M18.1929 11.5265C18.0867 10.6585 18.7043 9.86881 19.5723 9.76266C20.4403 9.65651 21.23 10.2741 21.3361 11.1421C21.4423 12.0101 20.8247 12.7998 19.9567 12.9059C19.0887 13.0121 18.299 12.3945 18.1929 11.5265Z" fill="white"/>
<path fill-rule="evenodd" clip-rule="evenodd" d="M3.72093 19.0104C3.92755 10.4871 11.0046 3.74498 19.528 3.9516C28.0514 4.15822 34.7935 11.2353 34.5869 19.7587C34.5738 20.2985 34.3923 20.7916 34.058 21.1977C33.7383 21.586 33.3244 21.8407 32.916 22.0112C32.1211 22.343 31.1248 22.4471 30.1389 22.4537C25.8818 22.4825 22.1842 26.1442 21.9425 30.4627C21.8861 31.4703 21.7143 32.4951 21.2807 33.3003C21.0562 33.7172 20.7408 34.1139 20.2992 34.4011C19.8469 34.6951 19.3284 34.8308 18.7798 34.8175C10.2564 34.6109 3.51432 27.5338 3.72093 19.0104ZM19.4705 6.3259C12.2584 6.15107 6.27007 11.8559 6.09524 19.068C5.92041 26.2801 11.6252 32.2684 18.8373 32.4432C18.9452 32.4458 18.985 32.4226 19.0046 32.4099C19.0347 32.3903 19.1044 32.3325 19.1896 32.1743C19.3754 31.8292 19.5214 31.2211 19.5712 30.33C19.8791 24.8281 24.5443 20.1165 30.1228 20.0788C31.0128 20.0728 31.6373 19.9713 32.0011 19.8195C32.1295 19.7659 32.1896 19.7205 32.2126 19.6999C32.3868 12.4883 26.6822 6.50072 19.4705 6.3259Z" fill="white"/>
</svg>
