<svg width="24" height="24" viewBox="0 0 24 24" fill="none" xmlns="http://www.w3.org/2000/svg">
<path d="M19.5609 14.625C19.289 14.625 19.0218 14.5734 18.7687 14.475H18.764C18.2062 14.25 17.7702 13.8047 17.5124 13.1859C17.1187 12.2484 17.1749 10.9969 17.6624 9.82967C18.3234 8.23592 19.6312 7.14842 20.9062 7.12967H20.9343C21.2062 7.12967 21.4781 7.18123 21.7312 7.27967H21.7359C22.2937 7.50467 22.7249 7.94998 22.9874 8.56873C23.3812 9.50623 23.3296 10.7578 22.8468 11.925C22.1718 13.5422 20.8546 14.625 19.5656 14.625H19.5609ZM19.3218 13.0781C19.4015 13.1062 19.4812 13.125 19.5656 13.125C20.1281 13.125 20.9812 12.5015 21.4593 11.3484C21.7874 10.5562 21.8437 9.71248 21.6046 9.14998C21.5015 8.90623 21.3609 8.74686 21.1781 8.67186C21.0984 8.64373 21.0187 8.62498 20.9343 8.62498H20.9202C20.3624 8.63436 19.5187 9.26248 19.0452 10.4015C18.7171 11.1937 18.6562 12.0375 18.8952 12.6047C18.9984 12.8437 19.139 13.0078 19.3218 13.0781Z" fill="white"/>
<path d="M17.2873 21.75C16.4529 21.75 15.5717 21.4594 14.6389 21.1547C13.7389 20.8594 12.8108 20.5594 12.0045 20.5594C11.1983 20.5594 10.2654 20.8641 9.36544 21.1547C8.42794 21.4594 7.542 21.75 6.71232 21.75C5.09982 21.75 3.78732 20.3812 3.78732 18.6984C3.78263 18.2953 3.85763 17.9016 4.00294 17.5266C4.37794 16.4906 5.2545 15.9656 6.10294 15.4547C6.84357 15.0094 7.542 14.5922 7.99669 13.8375C9.25294 11.7563 10.0123 10.5 11.9998 10.5C13.9873 10.5 14.742 11.7563 15.9983 13.8375C16.4529 14.5875 17.1467 15.0094 17.8873 15.45C18.7358 15.9609 19.6076 16.4859 19.9873 17.5266C20.1373 17.9016 20.2123 18.2953 20.2076 18.6984C20.2076 20.3812 18.8998 21.75 17.2873 21.75ZM12.0045 19.0594C13.0498 19.0594 14.0904 19.4016 15.1029 19.7297C15.9233 19.9969 16.692 20.25 17.2873 20.25C18.0701 20.25 18.7076 19.5516 18.7076 18.6937C18.7076 18.4781 18.6701 18.2719 18.5904 18.0703L18.5811 18.0422C18.3983 17.5266 17.9014 17.2078 17.1139 16.7344C16.2936 16.2422 15.3608 15.6797 14.7139 14.6109C13.4154 12.4594 13.0404 12 11.9998 12C10.9592 12 10.5795 12.4594 9.28107 14.6156C8.63419 15.6891 7.70138 16.2469 6.87638 16.7438C6.16388 17.1703 5.60607 17.5078 5.40919 18.0469L5.39982 18.0703C5.32013 18.2672 5.28263 18.4781 5.28263 18.6891V18.6937C5.28263 19.5516 5.92013 20.25 6.70763 20.25C7.30294 20.25 8.07638 19.9969 8.89669 19.7297C9.91388 19.4016 10.9592 19.0594 12.0045 19.0594Z" fill="white"/>
<path d="M9.02325 9.9375C8.29669 9.9375 7.58887 9.55312 7.02637 8.85469C6.5295 8.23125 6.18262 7.39219 6.05137 6.49219C5.742 4.35 6.68419 2.49844 8.20294 2.27344C8.30137 2.25937 8.39981 2.25 8.50294 2.25C9.2295 2.25 9.93731 2.63437 10.4951 3.33281C10.992 3.95625 11.3389 4.79531 11.4701 5.7C11.7795 7.84219 10.8373 9.69375 9.31856 9.91875C9.22481 9.92813 9.12169 9.9375 9.02325 9.9375ZM8.50762 3.75C8.48419 3.75 8.45606 3.75 8.43262 3.75469H8.42794C7.85137 3.83906 7.34981 4.93125 7.542 6.27188C7.7295 7.56563 8.46075 8.43281 9.02325 8.43281C9.04669 8.43281 9.07481 8.43281 9.09825 8.42813H9.10294C9.6795 8.34375 10.1811 7.25156 9.98887 5.91094C9.80137 4.61719 9.07012 3.75 8.50762 3.75Z" fill="white"/>
<path d="M14.5069 9.6875C14.4085 9.6875 14.3101 9.67812 14.2116 9.66406C12.6929 9.44375 11.746 7.59219 12.0601 5.44531C12.1913 4.54063 12.5382 3.70156 13.0351 3.08281C13.5882 2.38437 14.296 2 15.0226 2C15.121 2 15.2241 2.00937 15.3226 2.02344C16.8366 2.24375 17.7835 4.09531 17.4741 6.24219C17.3429 7.14219 17.0007 7.98125 16.5038 8.60469C15.9413 9.30312 15.2335 9.6875 14.5069 9.6875ZM15.0226 3.5C14.4601 3.5 13.7288 4.36719 13.5413 5.66094C13.3491 7.00156 13.8507 8.09375 14.4273 8.17813H14.4319C14.4554 8.18281 14.4835 8.1875 14.5069 8.18281C15.0741 8.18281 15.8007 7.31563 15.9882 6.02188C16.1804 4.68125 15.6788 3.58906 15.1023 3.50469C15.0741 3.5 15.046 3.5 15.0226 3.5Z" fill="white"/>
<path d="M4.43901 14.625H4.43433C3.14995 14.625 1.83276 13.5375 1.16245 11.925C0.67495 10.7578 0.623387 9.50154 1.01245 8.56873C1.27026 7.94998 1.7062 7.50467 2.26401 7.27967H2.2687C2.52651 7.18123 2.7937 7.12967 3.07026 7.12967C4.35464 7.12967 5.67183 8.21717 6.34214 9.82967C6.82964 10.9969 6.8812 12.2531 6.49214 13.1859C6.23433 13.8047 5.79839 14.25 5.24058 14.475H5.23589C4.97808 14.5734 4.71089 14.625 4.43901 14.625ZM2.81714 8.67186C2.63901 8.74686 2.4937 8.90623 2.39057 9.14998C2.15151 9.71717 2.21245 10.5609 2.54057 11.3531C3.02339 12.5015 3.87651 13.125 4.43433 13.125C4.52339 13.125 4.60308 13.1109 4.67808 13.0781C4.8562 13.0031 5.00151 12.8437 5.10464 12.6C5.3437 12.0328 5.28276 11.189 4.95464 10.3969C4.47651 9.24842 3.62339 8.62498 3.06558 8.62498C2.97651 8.62498 2.89682 8.63904 2.81714 8.67186Z" fill="white"/>
</svg>
