<svg width="24" height="24" viewBox="0 0 24 24" fill="none" xmlns="http://www.w3.org/2000/svg">
<path fill-rule="evenodd" clip-rule="evenodd" d="M8.25 1.5C7.42157 1.5 6.75 2.17157 6.75 3V21C6.75 21.8284 7.42157 22.5 8.25 22.5H15.75C16.5784 22.5 17.25 21.8284 17.25 21V3C17.25 2.17157 16.5784 1.5 15.75 1.5H8.25ZM5.25 3C5.25 1.34315 6.59315 0 8.25 0H15.75C17.4069 0 18.75 1.34315 18.75 3V21C18.75 22.6569 17.4069 24 15.75 24H8.25C6.59315 24 5.25 22.6569 5.25 21V3Z" fill="white"/>
<path fill-rule="evenodd" clip-rule="evenodd" d="M7.5 0.75C7.5 0.335786 7.83579 0 8.25 0H9.375C9.67337 0 9.95952 0.118526 10.1705 0.329505C10.3815 0.540484 10.5 0.826633 10.5 1.125H13.5C13.5 0.826633 13.6185 0.540484 13.8295 0.329505C14.0405 0.118526 14.3266 0 14.625 0H15.75C16.1642 0 16.5 0.335786 16.5 0.75C16.5 1.16421 16.1642 1.5 15.75 1.5H14.9524C14.8859 1.75726 14.7517 1.99458 14.5607 2.18566C14.2794 2.46697 13.8978 2.625 13.5 2.625H10.5C10.1022 2.625 9.72064 2.46696 9.43934 2.18566C9.24826 1.99458 9.11406 1.75726 9.04763 1.5H8.25C7.83579 1.5 7.5 1.16421 7.5 0.75Z" fill="white"/>
</svg>
