<svg width="39" height="39" viewBox="0 0 39 39" fill="none" xmlns="http://www.w3.org/2000/svg">
<path d="M3.62748 11.3906C3.46231 11.1335 3.40401 10.8221 3.46501 10.5226C3.526 10.2232 3.70147 9.95943 3.95404 9.78744C8.38606 6.61149 13.7016 4.90357 19.154 4.90357C24.6065 4.90357 29.922 6.61149 34.354 9.78744C34.6066 9.95943 34.7821 10.2232 34.8431 10.5226C34.9041 10.8221 34.8458 11.1335 34.6806 11.3906L20.1486 34.2054C20.0432 34.3741 19.8966 34.5132 19.7226 34.6097C19.5486 34.7061 19.353 34.7567 19.154 34.7567C18.9551 34.7567 18.7595 34.7061 18.5855 34.6097C18.4115 34.5132 18.2649 34.3741 18.1595 34.2054L3.62748 11.3906Z" stroke="white" stroke-width="2" stroke-linecap="round" stroke-linejoin="round"/>
<path d="M5.60156 14.4929C9.42427 11.3624 14.2129 9.65176 19.1539 9.65176C24.0949 9.65176 28.8835 11.3624 32.7063 14.4929" stroke="white" stroke-width="2" stroke-linecap="round" stroke-linejoin="round"/>
<path d="M24.5423 27.3031C23.92 27.1259 23.3477 26.8058 22.8709 26.3684C22.3942 25.931 22.0261 25.3883 21.796 24.7836C21.566 24.1789 21.4803 23.5288 21.5458 22.8851C21.6112 22.2414 21.8261 21.6219 22.1732 21.0759C22.5204 20.5299 22.9902 20.0724 23.5453 19.74C24.1004 19.4076 24.7254 19.2094 25.3706 19.1611C26.0158 19.1128 26.6634 19.2159 27.2618 19.462C27.8601 19.7081 28.3928 20.0906 28.8173 20.5789" stroke="white" stroke-width="2" stroke-linecap="round" stroke-linejoin="round"/>
<path d="M8.74854 19.421C9.02393 18.717 9.48615 18.1014 10.0854 17.6405C10.6847 17.1796 11.3983 16.8909 12.1495 16.8055C12.9006 16.72 13.6608 16.8411 14.3483 17.1556C15.0358 17.4701 15.6244 17.9662 16.0509 18.5904C16.4774 19.2146 16.7256 19.9433 16.7687 20.6981C16.8118 21.4528 16.6482 22.2051 16.2956 22.8738C15.943 23.5425 15.4146 24.1024 14.7674 24.4931C14.1203 24.8839 13.3787 25.0907 12.6228 25.0913H12.3556" stroke="white" stroke-width="2" stroke-linecap="round" stroke-linejoin="round"/>
</svg>
