<svg width="26" height="26" viewBox="0 0 26 26" fill="none" xmlns="http://www.w3.org/2000/svg">
<path d="M19.7152 5C19.9555 5 20.1957 5.2 20.1957 5.5C20.1957 5.8 20.3878 6 20.6761 6C20.9644 6 21.1565 5.8 21.1565 5.5C21.1565 4.85 20.7722 4.3 20.1957 4.1V3.5C20.1957 3.2 20.0035 3 19.7152 3C19.427 3 19.2348 3.2 19.2348 3.5V4.1C18.6583 4.3 18.2739 4.85 18.2739 5.5C18.2739 6.3 18.8985 7 19.7152 7C19.9555 7 20.1957 7.2 20.1957 7.5C20.1957 7.75 20.0035 8 19.7152 8C19.475 8 19.2348 7.8 19.2348 7.5C19.2348 7.2 19.0426 7 18.7544 7C18.4661 7 18.2739 7.2 18.2739 7.5C18.2739 8.15 18.6583 8.7 19.2348 8.9V9.5C19.2348 9.8 19.427 10 19.7152 10C20.0035 10 20.1957 9.8 20.1957 9.5V8.9C20.7722 8.7 21.1565 8.15 21.1565 7.5C21.1565 6.7 20.532 6 19.7152 6C19.475 6 19.2348 5.8 19.2348 5.5C19.2348 5.2 19.427 5 19.7152 5Z" fill="white"/>
<path d="M19.715 1C16.7843 1 14.4302 3.45 14.4302 6.5C14.4302 9.55 16.7843 12 19.715 12C22.6456 12 24.9998 9.55 24.9998 6.5C24.9998 3.45 22.6456 1 19.715 1ZM19.715 11C17.3128 11 15.391 9 15.391 6.5C15.391 4 17.3128 2 19.715 2C22.1172 2 24.0389 4 24.0389 6.5C24.0389 9 22.1172 11 19.715 11Z" fill="white" stroke="white" stroke-width="0.5"/>
<path d="M8.04062 10.55C7.84845 10.4 7.60823 10.4 7.41605 10.55L1.17038 16.25C0.978207 16.45 0.930164 16.75 1.12234 16.95C1.31451 17.15 1.60277 17.2 1.79495 17L2.56365 16.3V24.5C2.56365 24.8 2.75582 25 3.04408 25H6.16692C6.45518 25 6.64736 24.8 6.64736 24.5V22.25C6.64736 21.65 7.12779 21.15 7.75236 21.15C8.32888 21.15 8.80932 21.65 8.80932 22.25V24.5C8.80932 24.8 9.00149 25 9.28975 25H12.4126C12.7009 25 12.893 24.8 12.893 24.5V16.25L13.6617 16.95C13.7578 17.05 13.8539 17.05 13.998 17.05C14.1422 17.05 14.2863 17 14.3824 16.9C14.5746 16.7 14.5265 16.4 14.3343 16.2L8.04062 10.55ZM11.9322 24H9.77019V22.25C9.77019 21.1 8.85736 20.15 7.70432 20.15C6.59931 20.15 5.68648 21.1 5.68648 22.25V24H3.52452V15.4L7.75236 11.55L11.9802 15.4V24H11.9322Z" fill="white" stroke="white" stroke-width="0.5"/>
<path d="M7.22363 4V8C7.22363 8.3 7.41581 8.5 7.70407 8.5C7.99233 8.5 8.18451 8.3 8.18451 8V4.5H12.028L11.2593 5.1C11.0671 5.25 11.0191 5.6 11.1632 5.8C11.2593 5.95 11.4034 6 11.5476 6C11.6436 6 11.7397 5.95 11.8358 5.9L13.7576 4.4C13.9017 4.3 13.9497 4.15 13.9497 4C13.9497 3.85 13.9017 3.7 13.7576 3.6L11.8358 2.1C11.6436 1.95 11.3073 2 11.1632 2.2C11.0191 2.4 11.0671 2.75 11.2593 2.9L12.028 3.5H7.70407C7.41581 3.5 7.22363 3.7 7.22363 4Z" fill="white" stroke="white" stroke-width="0.5"/>
<path d="M16.7367 17.2C16.5926 17 16.2563 16.95 16.0641 17.1L14.1424 18.6C13.9982 18.7 13.9502 18.85 13.9502 19C13.9502 19.15 13.9982 19.3 14.1424 19.4L16.0641 20.9C16.1602 20.95 16.2563 21 16.3524 21C16.4965 21 16.6406 20.95 16.7367 20.8C16.8809 20.6 16.8328 20.25 16.6406 20.1L15.8719 19.5H20.1959C20.4841 19.5 20.6763 19.3 20.6763 19V15.5C20.6763 15.2 20.4841 15 20.1959 15C19.9076 15 19.7154 15.2 19.7154 15.5V18.5H15.8719L16.6406 17.9C16.8328 17.75 16.8809 17.4 16.7367 17.2Z" fill="white" stroke="white" stroke-width="0.5"/>
</svg>
