<svg width="24" height="24" viewBox="0 0 24 24" fill="none" xmlns="http://www.w3.org/2000/svg">
<g clip-path="url(#clip0_1772_926)">
<path d="M18.7288 23.2382C18.0913 23.2382 17.4491 22.9945 16.9616 22.507L16.957 22.5023L12.7382 18.2132C12.321 17.7914 12.0913 17.2289 12.0913 16.6382V16.3804C12.0913 16.1836 12.0116 15.9914 11.8757 15.8554L11.3413 15.3539C11.1538 15.1804 10.8913 15.1148 10.6429 15.1804C9.60695 15.4523 8.49601 15.1476 7.74133 14.3929L3.7382 10.3898C2.0882 8.74449 1.07101 6.51324 1.0757 4.57262C1.08039 3.39605 1.45539 2.40699 2.1632 1.70387C2.45851 1.41324 2.92726 1.41324 3.22257 1.70855L20.4913 18.9773C21.4663 19.9523 21.4663 21.5367 20.4913 22.507C20.0038 22.9945 19.3663 23.2382 18.7288 23.2382ZM18.0257 21.4476C18.4148 21.832 19.0476 21.832 19.4366 21.4476C19.8257 21.0586 19.8257 20.4257 19.4366 20.0367L2.79601 3.40074C2.62257 3.80387 2.5757 4.23512 2.5757 4.5773C2.57101 6.11012 3.44289 7.97574 4.79757 9.32574L8.8007 13.3289C9.18039 13.7086 9.74289 13.8632 10.2632 13.7273C11.0085 13.5304 11.7913 13.7273 12.3585 14.2523L12.9023 14.7539C12.9069 14.7586 12.9163 14.7632 12.921 14.7726C13.3476 15.1945 13.5913 15.7757 13.5913 16.3757V16.6336C13.5913 16.8304 13.6663 17.0179 13.807 17.1586L18.0257 21.4476Z" fill="white"/>
<path d="M13.4977 9.74759C13.3055 9.74759 13.1133 9.6726 12.968 9.52728C12.6773 9.23666 12.6773 8.75853 12.968 8.46791L13.4977 7.93822V7.23978C13.4977 6.23666 13.8867 5.29447 14.5945 4.58666L18.2133 0.967908C18.5039 0.677283 18.982 0.677283 19.2727 0.967908C19.5633 1.25853 19.5633 1.73666 19.2727 2.02728L15.6539 5.64603C15.2273 6.0726 14.993 6.63509 14.993 7.2351V7.93353C14.993 8.33666 14.8383 8.71166 14.5523 8.99291L14.0227 9.52259C13.882 9.6726 13.6898 9.74759 13.4977 9.74759Z" fill="white"/>
<path d="M14.9977 11.2476C14.8055 11.2476 14.6133 11.1726 14.468 11.0273C14.1773 10.7367 14.1773 10.2586 14.468 9.96793L14.9977 9.43824C15.2789 9.15699 15.6586 8.99761 16.057 8.99761H16.7555C17.3555 8.99761 17.9227 8.76324 18.3445 8.33668L21.968 4.71324C22.2586 4.42261 22.7367 4.42261 23.0273 4.71324C23.318 5.00386 23.318 5.48199 23.0273 5.77261L19.4086 9.39136C18.7008 10.1086 17.7586 10.4976 16.7555 10.4976H16.057L15.5273 11.0273C15.382 11.1726 15.1898 11.2476 14.9977 11.2476Z" fill="white"/>
<path d="M16.8727 7.87259C16.6805 7.87259 16.4883 7.7976 16.343 7.65228C16.0523 7.36166 16.0523 6.88353 16.343 6.59291L20.093 2.84291C20.3836 2.55228 20.8617 2.55228 21.1523 2.84291C21.443 3.13353 21.443 3.61166 21.1523 3.90228L17.4023 7.65228C17.257 7.7976 17.0648 7.87259 16.8727 7.87259Z" fill="white"/>
<path d="M3.37266 23.2476C2.70234 23.2476 2.02734 22.9898 1.51641 22.4789C0.494531 21.457 0.494531 19.7882 1.51641 18.7664L5.46797 14.8382C5.76328 14.5476 6.23672 14.5476 6.52734 14.8429C6.81797 15.1382 6.81797 15.6117 6.52266 15.9023L2.57578 19.8304C2.13984 20.2664 2.13984 20.9789 2.57578 21.4195C3.01641 21.8601 3.72891 21.8601 4.16484 21.4195L8.83828 16.7226C9.12891 16.4273 9.60703 16.4273 9.89766 16.7179C10.193 17.0085 10.193 17.4867 9.90234 17.7773L5.22891 22.4789C4.71797 22.9898 4.04297 23.2476 3.37266 23.2476Z" fill="white"/>
</g>
<defs>
<clipPath id="clip0_1772_926">
<rect width="24" height="24" fill="white"/>
</clipPath>
</defs>
</svg>
