<svg width="24" height="24" viewBox="0 0 24 24" fill="none" xmlns="http://www.w3.org/2000/svg">
<path fill-rule="evenodd" clip-rule="evenodd" d="M20.135 5.60092C20.3041 5.87 20.2853 6.21645 20.088 6.46561C19.2359 7.54171 18.7939 8.45402 18.5859 9.25279C18.3789 10.0476 18.3923 10.7734 18.5115 11.498C18.605 12.066 18.7565 12.6044 18.9213 13.1903C18.9746 13.3794 19.0292 13.5735 19.0836 13.7751C19.2999 14.5753 19.5 15.4519 19.5 16.4194C19.5 18.3472 18.7709 20.0707 17.4395 21.3082C16.1106 22.5435 14.2312 23.25 12 23.25C9.78494 23.25 7.90776 22.6042 6.57378 21.4225C5.23221 20.2341 4.5 18.5551 4.5 16.6238C4.5 14.9461 4.95223 13.5177 5.79473 12.2938C6.62971 11.0809 7.82243 10.1055 9.25214 9.28059C9.32641 9.23738 9.39738 9.19607 9.4654 9.15647C10.4814 8.56497 10.8403 8.35607 11.7146 7.93157L11.7149 7.93143C13.1389 7.24089 14.8192 6.51276 16.7696 5.93485M20.135 5.60092C19.9659 5.33184 19.6455 5.19856 19.3355 5.26829L20.135 5.60092ZM19.3355 5.26829C18.4332 5.47117 17.578 5.69522 16.7697 5.93482L19.3355 5.26829ZM17.803 7.19874C17.5976 7.25581 17.3952 7.31392 17.196 7.37299L17.1959 7.37302C15.3496 7.92006 13.7488 8.61218 12.3697 9.28095C11.5469 9.68046 11.2314 9.86411 10.2123 10.4573C10.1464 10.4957 10.0775 10.5358 10.0053 10.5778L10.0029 10.5792C8.69565 11.3333 7.69974 12.1718 7.03027 13.1444C6.36808 14.1063 6 15.2353 6 16.6238C6 18.157 6.57092 19.4161 7.5684 20.2997C8.57349 21.19 10.0713 21.75 12 21.75C13.9126 21.75 15.4081 21.1485 16.4183 20.2096C17.426 19.2729 18 17.9561 18 16.4194C18 15.6546 17.8426 14.9324 17.6356 14.1664C17.5904 13.9992 17.5419 13.8272 17.4924 13.6513C17.3226 13.0487 17.1398 12.4001 17.0314 11.7416C16.887 10.8642 16.8623 9.91961 17.1343 8.87482C17.2752 8.33356 17.4927 7.77725 17.803 7.19874Z" fill="white"/>
<path fill-rule="evenodd" clip-rule="evenodd" d="M4.62331 3.76021L4.50002 4.50001C4.62331 3.76021 4.62342 3.76023 4.62354 3.76025L4.62715 3.76086L4.6355 3.76228C4.64255 3.76348 4.65255 3.76521 4.66538 3.76746C4.69104 3.77197 4.72801 3.77858 4.77534 3.78736C4.86997 3.8049 5.00612 3.83111 5.17598 3.86638C5.51539 3.93687 5.99109 4.04392 6.54027 4.19095C7.62954 4.48258 9.04603 4.94142 10.2632 5.60373L10.2635 5.60391C11.0078 6.00941 11.9737 6.62331 12.981 8.0045C13.2251 8.33917 13.1516 8.80833 12.8169 9.05239C12.4823 9.29646 12.0131 9.223 11.769 8.88833C10.9305 7.73849 10.1613 7.25641 9.54623 6.92129C9.54617 6.92126 9.54612 6.92123 9.54607 6.92121C9.54601 6.92117 9.54594 6.92114 9.54588 6.9211C8.50791 6.35635 7.26111 5.94097 6.23388 5.66191C7.12184 7.44908 6.93253 9.21936 6.74424 10.5933C6.74407 10.5949 6.74386 10.5967 6.74363 10.5989C6.74261 10.6083 6.74103 10.6231 6.73906 10.6429C6.7351 10.6826 6.72955 10.7422 6.72362 10.8181C6.71171 10.9701 6.69839 11.1857 6.69301 11.4363C6.68202 11.9482 6.70545 12.5618 6.82103 13.0724C6.9125 13.4764 6.65914 13.878 6.25516 13.9695C5.85117 14.0609 5.44952 13.8076 5.35806 13.4036C5.2027 12.7174 5.18137 11.9621 5.19335 11.4041C5.19946 11.1198 5.21455 10.8753 5.22819 10.701C5.23503 10.6137 5.24153 10.5435 5.24644 10.4942C5.2489 10.4696 5.25096 10.4501 5.25246 10.4363C5.25321 10.4294 5.25383 10.4239 5.25428 10.4199L5.25485 10.415L5.25513 10.4125C5.25514 10.4124 5.25516 10.4123 6.00002 10.5L5.25516 10.4123C5.25572 10.4076 5.25632 10.4028 5.25698 10.3981C5.49663 8.65137 5.64619 6.79608 3.95617 5.01647C3.73411 4.78264 3.68638 4.43304 3.83762 4.14824C3.98887 3.86344 4.30523 3.7072 4.62331 3.76021Z" fill="white"/>
<path fill-rule="evenodd" clip-rule="evenodd" d="M16.4122 2.64755L15.7501 3V2.25C16.0273 2.25 16.2819 2.40288 16.4122 2.64755ZM15.7535 3.75C15.754 3.74999 15.7543 3.74998 15.7543 3.74998L15.7539 3.74999L15.7535 3.75ZM15.3172 3.79253C15.0247 3.83502 14.5976 3.91983 14.0716 4.08899C12.996 4.4349 11.4989 5.13593 9.8865 6.56182C9.57622 6.83622 9.10223 6.80713 8.82783 6.49684C8.55343 6.18656 8.58253 5.71258 8.89281 5.43818C10.6728 3.86407 12.3559 3.0651 13.6124 2.66101C14.2396 2.45931 14.7586 2.35658 15.1283 2.30427C15.3131 2.27812 15.4607 2.26455 15.566 2.25752C15.6187 2.25401 15.6607 2.25213 15.6916 2.25113C15.7071 2.25063 15.7197 2.25034 15.7295 2.25019C15.7344 2.25011 15.7386 2.25006 15.742 2.25004L15.7466 2.25001L15.7485 2.25L15.7494 2.25C15.7497 2.25 15.7501 2.25 15.7501 3C16.4122 2.64755 16.4122 2.64758 16.4122 2.64762L16.4123 2.64774L16.4154 2.65364C16.4174 2.65741 16.4203 2.66289 16.4241 2.67002C16.4316 2.68429 16.4426 2.70519 16.4569 2.73224C16.4853 2.78635 16.5265 2.86512 16.5781 2.96482C16.6812 3.16415 16.8261 3.44751 16.9939 3.78497C17.3285 4.45814 17.7579 5.35407 18.1284 6.23064C18.2897 6.61217 18.1112 7.0522 17.7296 7.21347C17.3481 7.37475 16.9081 7.1962 16.7468 6.81467C16.3931 5.97796 15.9787 5.11256 15.6507 4.45272C15.5229 4.19559 15.4087 3.97081 15.3172 3.79253Z" fill="white"/>
<path fill-rule="evenodd" clip-rule="evenodd" d="M8.46888 0.782649L8.24995 1.49999C8.46888 0.782649 8.46911 0.782721 8.46936 0.782795L8.47108 0.783325L8.47407 0.784248C8.47632 0.784948 8.47908 0.785814 8.48236 0.78685C8.4889 0.788921 8.49748 0.791672 8.508 0.795124C8.52903 0.802026 8.55785 0.811737 8.59379 0.824427C8.66563 0.849797 8.76608 0.887145 8.88967 0.937853C9.13651 1.03913 9.47763 1.19452 9.86843 1.41545C10.647 1.85556 11.6422 2.56681 12.4756 3.64659C12.7286 3.9745 12.668 4.44548 12.3401 4.69856C12.0122 4.95164 11.5412 4.89098 11.2881 4.56307C10.6107 3.68535 9.78996 3.09417 9.13026 2.72124C8.90741 2.59526 8.70517 2.49546 8.53629 2.41892C8.01347 3.26906 7.56119 4.34849 7.33965 5.17163C7.232 5.57161 6.82048 5.80858 6.4205 5.70093C6.02052 5.59328 5.78354 5.18176 5.89119 4.78178C6.19576 3.65019 6.86379 2.1187 7.6458 1.05558C7.83443 0.799141 8.1644 0.689724 8.46888 0.782649Z" fill="white"/>
</svg>
