<svg width="24" height="24" viewBox="0 0 24 24" fill="none" xmlns="http://www.w3.org/2000/svg">
<path d="M2 11C2 11.5523 2.44772 12 3 12H6V9C6 8.44771 5.55229 8 5 8H3C2.44772 8 2 8.44771 2 9V11Z" fill="white"/>
<path d="M10 12H14V9C14 8.44771 13.5523 8 13 8H11C10.4477 8 10 8.44771 10 9V12Z" fill="white"/>
<path d="M6 15C6 15.5523 6.44772 16 7 16H9C9.55229 16 10 15.5523 10 15V12H6V15Z" fill="white"/>
<path d="M18 12H21C21.5523 12 22 11.5523 22 11V9C22 8.44771 21.5523 8 21 8H19C18.4477 8 18 8.44771 18 9V12Z" fill="white"/>
<path d="M14 15C14 15.5523 14.4477 16 15 16H17C17.5523 16 18 15.5523 18 15V12H14V15Z" fill="white"/>
<path d="M2 19C2 18.4477 2.44772 18 3 18H21C21.5523 18 22 18.4477 22 19C22 19.5523 21.5523 20 21 20H3C2.44772 20 2 19.5523 2 19Z" fill="white"/>
<path d="M2 5C2 4.44772 2.44772 4 3 4H21C21.5523 4 22 4.44772 22 5C22 5.55228 21.5523 6 21 6H3C2.44772 6 2 5.55228 2 5Z" fill="white"/>
</svg>
