<svg width="39" height="39" viewBox="0 0 39 39" fill="none" xmlns="http://www.w3.org/2000/svg">
<path d="M28.8848 18.1971H32.9074C33.1266 18.1976 33.3415 18.1367 33.5278 18.0212C33.714 17.9058 33.8642 17.7405 33.9613 17.544L36.6926 12.0815C36.8279 11.8079 36.8541 11.4931 36.7659 11.2009C36.6777 10.9088 36.4817 10.661 36.2176 10.5081L28.8848 6.32211" stroke="white" stroke-width="2" stroke-linecap="round" stroke-linejoin="round"/>
<path d="M9.88459 18.1971H5.86194C5.64279 18.1976 5.42788 18.1367 5.2416 18.0212C5.05532 17.9058 4.90512 17.7405 4.80803 17.544L2.07678 12.0815C1.94146 11.8079 1.91525 11.4931 2.00346 11.2009C2.09166 10.9088 2.28769 10.661 2.55178 10.5081L9.88459 6.32211" stroke="white" stroke-width="2" stroke-linecap="round" stroke-linejoin="round"/>
<path d="M24.1348 6.32211C24.1348 7.58189 23.6343 8.79007 22.7435 9.68087C21.8527 10.5717 20.6445 11.0721 19.3848 11.0721C18.125 11.0721 16.9168 10.5717 16.026 9.68087C15.1352 8.79007 14.6348 7.58189 14.6348 6.32211H9.88477V31.2596C9.88477 31.5746 10.0099 31.8766 10.2326 32.0993C10.4553 32.322 10.7573 32.4471 11.0723 32.4471H27.6973C28.0122 32.4471 28.3143 32.322 28.537 32.0993C28.7597 31.8766 28.8848 31.5746 28.8848 31.2596V6.32211H24.1348Z" stroke="white" stroke-width="2" stroke-linecap="round" stroke-linejoin="round"/>
</svg>
