<svg width="38" height="38" viewBox="0 0 38 38" fill="none" xmlns="http://www.w3.org/2000/svg">
<path fill-rule="evenodd" clip-rule="evenodd" d="M18.3848 5.22822C18.7703 5.1185 19.177 5.1184 19.5624 5.2278C20.3819 5.46034 21.2089 5.67603 22.0386 5.89243C25.9349 6.90863 29.892 7.94068 33.4125 10.8081L35.0338 12.1286C35.6914 12.6642 36.0204 13.457 36.0207 14.25V25.3333C36.0207 25.9892 35.489 26.5208 34.8332 26.5208C34.1773 26.5208 33.6457 25.9892 33.6457 25.3333V17.5064L33.3877 17.7169C32.1678 18.7124 30.895 19.4854 29.5905 20.1129C29.6528 20.2571 29.6873 20.4162 29.6873 20.5833V27.3821C29.6873 29.1764 28.5866 30.787 26.9148 31.4388L20.5814 33.908C19.5643 34.3045 18.4354 34.3045 17.4182 33.908L11.0849 31.4388C9.4131 30.787 8.31234 29.1764 8.31234 27.3821V20.5833C8.31234 20.412 8.34863 20.2491 8.41396 20.102C7.09924 19.4708 5.81657 18.6933 4.58714 17.6919L2.9659 16.3714C1.65069 15.3002 1.65 13.2001 2.96407 12.1278L4.61197 10.7831C8.10708 7.93098 12.0362 6.9051 15.9037 5.89531C16.7352 5.6782 17.5639 5.46183 18.3848 5.22822ZM33.6457 14.251C33.6456 14.1083 33.588 14.0141 33.5339 13.9701L31.9127 12.6496C28.4998 10.2917 25.4588 9.25173 21.5963 8.23676C20.747 8.01359 19.8737 7.78409 18.9744 7.52969C18.0712 7.78593 17.1947 8.01652 16.3425 8.24071C12.511 9.24871 9.17245 10.127 6.11353 12.6232L4.46563 13.9679C4.4115 14.0121 4.35395 14.1064 4.354 14.2491C4.35406 14.3917 4.41169 14.4859 4.46576 14.5299L6.087 15.8504C9.17184 18.363 12.5409 19.2483 16.4033 20.2633C17.2527 20.4864 18.1259 20.7159 19.0252 20.9703C19.9284 20.7141 20.8049 20.4835 21.6569 20.2594C25.4884 19.2514 28.8272 18.373 31.8861 15.8768L33.534 14.5321C33.5881 14.488 33.6456 14.3934 33.6457 14.251ZM22.096 22.6047C23.8374 22.15 25.5912 21.6921 27.3123 21.0657V27.3821C27.3123 28.1977 26.812 28.9298 26.0521 29.226L19.7187 31.6952C19.2564 31.8754 18.7433 31.8754 18.2809 31.6952L11.9476 29.226C11.1877 28.9298 10.6873 28.1977 10.6873 27.3821V21.0522C12.4271 21.6859 14.2003 22.1483 15.9611 22.6076C16.7908 22.824 17.6178 23.0397 18.4372 23.2722C18.8227 23.3816 19.2293 23.3815 19.6149 23.2718C20.4357 23.0382 21.2645 22.8218 22.096 22.6047Z" fill="white"/>
</svg>
