<svg width="24" height="24" viewBox="0 0 24 24" fill="none" xmlns="http://www.w3.org/2000/svg">
<path fill-rule="evenodd" clip-rule="evenodd" d="M7.92118 13.9983C9.04522 12.9992 10.4968 12.4474 12.0007 12.4474C13.5046 12.4474 14.9562 12.9992 16.0802 13.9983C16.3898 14.2735 16.4177 14.7476 16.1425 15.0572C15.8673 15.3668 15.3933 15.3947 15.0837 15.1195C14.2342 14.3644 13.1372 13.9474 12.0007 13.9474C10.8642 13.9474 9.76716 14.3644 8.9177 15.1195C8.60811 15.3947 8.13406 15.3668 7.85887 15.0572C7.58369 14.7476 7.61159 14.2735 7.92118 13.9983Z" fill="white"/>
<path fill-rule="evenodd" clip-rule="evenodd" d="M5.0444 11.1494C6.93094 9.38532 9.41727 8.40396 12.0001 8.40396C14.5829 8.40396 17.0692 9.38532 18.9558 11.1494C19.2583 11.4323 19.2742 11.9069 18.9913 12.2094C18.7084 12.512 18.2338 12.5279 17.9313 12.245C16.3226 10.7408 14.2025 9.90396 12.0001 9.90396C9.79769 9.90396 7.67757 10.7408 6.06889 12.245C5.76634 12.5279 5.29173 12.512 5.00883 12.2094C4.72592 11.9069 4.74185 11.4323 5.0444 11.1494Z" fill="white"/>
<path fill-rule="evenodd" clip-rule="evenodd" d="M2.51392 7.97675C5.12479 5.64763 8.50129 4.36044 12.0001 4.36044C15.4988 4.36044 18.8753 5.64763 21.4862 7.97675C21.7953 8.25248 21.8223 8.72659 21.5466 9.03568C21.2709 9.34478 20.7968 9.37182 20.4877 9.09608C18.1516 7.01214 15.1306 5.86044 12.0001 5.86044C8.86958 5.86044 5.84851 7.01214 3.51246 9.09608C3.20337 9.37182 2.72926 9.34478 2.45352 9.03568C2.17778 8.72659 2.20482 8.25248 2.51392 7.97675Z" fill="white"/>
<path d="M12 19.5C11.7033 19.5 11.4133 19.412 11.1666 19.2472C10.92 19.0824 10.7277 18.8481 10.6142 18.574C10.5006 18.2999 10.4709 17.9983 10.5288 17.7074C10.5867 17.4164 10.7296 17.1491 10.9393 16.9393C11.1491 16.7296 11.4164 16.5867 11.7074 16.5288C11.9983 16.4709 12.2999 16.5006 12.574 16.6142C12.8481 16.7277 13.0824 16.92 13.2472 17.1666C13.412 17.4133 13.5 17.7033 13.5 18C13.5 18.3978 13.342 18.7794 13.0607 19.0607C12.7794 19.342 12.3978 19.5 12 19.5Z" fill="white"/>
</svg>
